<?xml version="1.0" encoding="UTF-8"?>
<svg version="1.1" xmlns="http://www.w3.org/2000/svg" width="414" height="414">
<path d="M0 0 C13.57105197 -0.09332565 27.14202563 -0.16407904 40.71333504 -0.20724869 C47.01733996 -0.22798431 53.32112282 -0.25604098 59.625 -0.30175781 C65.72643034 -0.34572162 71.82764922 -0.36924206 77.92922592 -0.37950897 C80.23884274 -0.38681077 82.54845006 -0.40106438 84.85797501 -0.42292023 C124.75754075 -0.78494542 158.77369178 10.17435413 187.6875 38.4375 C189.17186319 39.91262921 190.62512566 41.42232424 192 43 C192 43.66 192 44.32 192 45 C192.66 45 193.32 45 194 45 C195.33203125 46.6875 195.33203125 46.6875 196.8125 49 C197.34746094 49.83273438 197.88242187 50.66546875 198.43359375 51.5234375 C198.95050781 52.34070313 199.46742188 53.15796875 200 54 C200.40347656 54.61101562 200.80695313 55.22203125 201.22265625 55.8515625 C208.57982901 67.17412668 218 82.01639727 218 96 C194.9 96 171.8 96 148 96 C144 88 144 88 142.796875 85.3828125 C136.71991656 72.27653646 127.60029196 63.59024609 114.3984375 57.82421875 C106.72522471 55.18733292 99.69937979 54.63502361 91.625 54.4375 C84.0395579 54.22324773 76.54053177 53.87948235 69 53 C69.03552979 53.66306152 69.07105957 54.32612305 69.10766602 55.00927734 C69.26915915 58.13075893 69.4158068 61.25278913 69.5625 64.375 C69.64661133 65.93734375 69.64661133 65.93734375 69.73242188 67.53125 C70.16933448 77.20158242 69.54590593 86.17369319 69 96 C45.9 96 22.8 96 -1 96 C-1.33 94.68 -1.66 93.36 -2 92 C-1.505 91.505 -1.505 91.505 -1 91 C-0.87476921 88.17039282 -0.81390772 85.36400663 -0.79467773 82.53295898 C-0.78477814 81.64523804 -0.77487854 80.75751709 -0.76467896 79.84289551 C-0.73296516 76.89398918 -0.70826766 73.94506671 -0.68359375 70.99609375 C-0.66303274 68.9572761 -0.64203651 66.91846279 -0.62062073 64.87965393 C-0.5653119 59.50220245 -0.51594162 54.12471194 -0.46777344 48.74719238 C-0.41762258 43.26436879 -0.36190311 37.78160216 -0.30664062 32.29882812 C-0.19895135 21.5326007 -0.09753046 10.7663239 0 0 Z " fill="#F9F9F9" transform="translate(164,65)"/>
<path d="M0 0 C23.1 0 46.2 0 70 0 C70 14.19 70 28.38 70 43 C76.744375 42.8453125 76.744375 42.8453125 83.625 42.6875 C85.01154785 42.66260498 86.3980957 42.63770996 87.82666016 42.61206055 C105.61535999 42.09653695 122.43540928 38.17859229 135.125 25 C139.96402491 19.31100664 142.88611596 12.72441288 146 6 C146.99 4.02 147.98 2.04 149 0 C172.1 0 195.2 0 219 0 C212.731318 31.34341002 193.5017246 57.85853241 167.03710938 75.68164062 C146.18219248 89.17835098 121.99263335 96.20445884 97.17773438 96.11352539 C95.59590363 96.11374443 95.59590363 96.11374443 93.9821167 96.1139679 C90.51930639 96.11327489 87.05655083 96.10551127 83.59375 96.09765625 C81.1837975 96.09578989 78.77384462 96.09436702 76.3638916 96.09336853 C70.03791242 96.08956049 63.7119564 96.07974488 57.38598633 96.06866455 C49.78674803 96.05660947 42.18750197 96.05204003 34.58825684 96.04621124 C23.05882181 96.03653218 11.52943755 96.01736361 0 96 C0 64.32 0 32.64 0 0 Z " fill="#FAFAFA" transform="translate(163,253)"/>
<path d="M0 0 C22.77 0 45.54 0 69 0 C69.68120953 3.40604764 70.12556434 5.86927027 70.12939453 9.20776367 C70.13254669 10.00176071 70.13569885 10.79575775 70.13894653 11.61381531 C70.13591019 12.87812126 70.13591019 12.87812126 70.1328125 14.16796875 C70.13376923 15.04399246 70.13472595 15.92001617 70.13571167 16.82258606 C70.13639025 18.66745069 70.13455847 20.51231774 70.13037109 22.35717773 C70.12499897 25.1880423 70.13033686 28.0187496 70.13671875 30.84960938 C70.13605829 32.64322952 70.13477779 34.43684956 70.1328125 36.23046875 C70.13483673 37.07941208 70.13686096 37.92835541 70.13894653 38.80302429 C70.11497194 44.77005613 70.11497194 44.77005613 69 47 C75.27 47 81.54 47 88 47 C88 63.17 88 79.34 88 96 C53.02 96 18.04 96 -18 96 C-18.33 79.83 -18.66 63.66 -19 47 C-14.79066487 46.15813297 -11.43017133 45.89464473 -7.1875 45.9375 C-6.02605469 45.94652344 -4.86460938 45.95554687 -3.66796875 45.96484375 C-2.78753906 45.97644531 -1.90710938 45.98804688 -1 46 C-1.00785522 44.49602661 -1.00785522 44.49602661 -1.01586914 42.96166992 C-1.03416301 39.19133419 -1.04551984 35.42100226 -1.05493164 31.65063477 C-1.05991672 30.02823219 -1.0667072 28.405834 -1.07543945 26.78344727 C-1.08776356 24.43244331 -1.09328662 22.08149945 -1.09765625 19.73046875 C-1.10281754 19.02166061 -1.10797882 18.31285248 -1.11329651 17.58256531 C-1.11394045 11.61555368 -0.54737151 6.02108657 0 0 Z " fill="#F8F8F8" transform="translate(60,253)"/>
<path d="M0 0 C34.98 0 69.96 0 106 0 C106 16.17 106 32.34 106 49 C99.73 49 93.46 49 87 49 C87.33 49.99 87.66 50.98 88 52 C88.09088333 53.4217421 88.12789172 54.8473295 88.12939453 56.27197266 C88.13254669 57.12941071 88.13569885 57.98684875 88.13894653 58.87026978 C88.13591019 60.25319717 88.13591019 60.25319717 88.1328125 61.6640625 C88.13376923 62.61187592 88.13472595 63.55968933 88.13571167 64.53622437 C88.13639203 66.53847317 88.13454779 68.54072419 88.13037109 70.54296875 C88.12500899 73.61984156 88.13032705 76.69656917 88.13671875 79.7734375 C88.13605818 81.71614616 88.13477744 83.65885472 88.1328125 85.6015625 C88.13483673 86.52756256 88.13686096 87.45356262 88.13894653 88.40762329 C88.13421829 89.68432388 88.13421829 89.68432388 88.12939453 90.98681641 C88.12859894 91.73943756 88.12780334 92.49205872 88.12698364 93.26748657 C88 95 88 95 87 96 C84.85256451 96.09425595 82.70198974 96.11742648 80.55249023 96.11352539 C79.54277664 96.11374443 79.54277664 96.11374443 78.51266479 96.1139679 C76.27794216 96.11326878 74.0433019 96.10547652 71.80859375 96.09765625 C70.26302638 96.09579206 68.71745843 96.09436816 67.17189026 96.09336853 C63.09642923 96.0895434 59.02100363 96.07971317 54.94555664 96.06866455 C50.78988118 96.05845032 46.63420001 96.05387089 42.47851562 96.04882812 C34.31899413 96.03809089 26.15950147 96.02101454 18 96 C17.15979902 91.28144715 16.853657 86.7532981 16.8671875 81.96875 C16.86575241 80.83753723 16.86575241 80.83753723 16.86428833 79.68347168 C16.86361102 78.09676021 16.86543383 76.51004591 16.86962891 74.92333984 C16.87498355 72.50742311 16.86966865 70.09169226 16.86328125 67.67578125 C16.86394211 66.12760376 16.86522344 64.57942639 16.8671875 63.03125 C16.86516327 62.31545776 16.86313904 61.59966553 16.86105347 60.86218262 C16.88024162 56.71729539 17.30911656 53.14530064 18 49 C12.06 49.33 6.12 49.66 0 50 C0 33.5 0 17 0 0 Z " fill="#F8F8F8" transform="translate(42,65)"/>
<path d="M0 0 C3.75 0.5625 3.75 0.5625 5.21875 2.171875 C6.50612645 4.2599368 7.63639572 6.37724229 8.75 8.5625 C9.74061912 10.23475941 10.73848283 11.90279798 11.75 13.5625 C11.84087891 12.28052734 11.84087891 12.28052734 11.93359375 10.97265625 C12.01738281 9.86792969 12.10117187 8.76320312 12.1875 7.625 C12.26871094 6.52285156 12.34992188 5.42070312 12.43359375 4.28515625 C12.75 1.5625 12.75 1.5625 13.75 0.5625 C16.75 0.4375 16.75 0.4375 19.75 0.5625 C20.75 1.5625 20.75 1.5625 20.86352539 4.52172852 C20.85828857 5.81522217 20.85305176 7.10871582 20.84765625 8.44140625 C20.8462413 9.1280687 20.84482635 9.81473114 20.84336853 10.52220154 C20.83775479 12.72317801 20.82520007 14.92405409 20.8125 17.125 C20.80748676 18.61393083 20.80292355 20.10286324 20.79882812 21.59179688 C20.78778093 25.24873075 20.77050713 28.90560558 20.75 32.5625 C15.02148438 33.62792969 15.02148438 33.62792969 12.578125 33.0390625 C8.40281981 29.66670061 6.79670908 23.30714378 4.75 18.5625 C4.42 23.1825 4.09 27.8025 3.75 32.5625 C-2.25 33.5625 -2.25 33.5625 -4.25 32.5625 C-4.27465504 28.16593827 -4.29283842 23.7694128 -4.30493164 19.37280273 C-4.30997121 17.87605082 -4.31680287 16.37930384 -4.32543945 14.88256836 C-4.33752159 12.73550193 -4.34323191 10.58850038 -4.34765625 8.44140625 C-4.35289307 7.1479126 -4.35812988 5.85441895 -4.36352539 4.52172852 C-4.20479794 0.38423286 -4.13006706 0.7148193 0 0 Z " fill="#4E5289" transform="translate(364.25,177.4375)"/>
<path d="M0 0 C0.70833984 -0.02900391 1.41667969 -0.05800781 2.14648438 -0.08789062 C7.3188674 -0.14997833 10.20596434 0.9124651 14.3125 4.3125 C16.02566857 7.73883714 15.72226083 11.55747859 15.3125 15.3125 C13.75 17.625 13.75 17.625 12.3125 19.3125 C12.41500596 22.38767875 13.65810263 23.81057438 15.4375 26.375 C16.05625 27.344375 16.675 28.31375 17.3125 29.3125 C16.9825 30.3025 16.6525 31.2925 16.3125 32.3125 C10.6875 33.4375 10.6875 33.4375 7.3125 32.3125 C5.92578125 30.31640625 5.92578125 30.31640625 4.625 27.875 C3.96951172 26.67037109 3.96951172 26.67037109 3.30078125 25.44140625 C2.3125 23.3125 2.3125 23.3125 2.3125 21.3125 C1.6525 21.3125 0.9925 21.3125 0.3125 21.3125 C0.33570312 22.01117188 0.35890625 22.70984375 0.3828125 23.4296875 C0.40988281 24.79480469 0.40988281 24.79480469 0.4375 26.1875 C0.46070312 27.09242188 0.48390625 27.99734375 0.5078125 28.9296875 C0.3125 31.3125 0.3125 31.3125 -1.6875 33.3125 C-5.3125 32.9375 -5.3125 32.9375 -8.6875 32.3125 C-8.71215504 27.91593827 -8.73033842 23.5194128 -8.74243164 19.12280273 C-8.74747121 17.62605082 -8.75430287 16.12930384 -8.76293945 14.63256836 C-8.77502159 12.48550193 -8.78073191 10.33850038 -8.78515625 8.19140625 C-8.79039307 6.8979126 -8.79562988 5.60441895 -8.80102539 4.27172852 C-8.58429254 -1.37777436 -4.63986243 0.06164565 0 0 Z M0.3125 8.3125 C0.3125 10.2925 0.3125 12.2725 0.3125 14.3125 C1.97861905 14.355221 3.64632885 14.35313832 5.3125 14.3125 C6.60883621 13.24604885 6.60883621 13.24604885 6.375 10.75 C6.354375 9.945625 6.33375 9.14125 6.3125 8.3125 C4.3325 8.3125 2.3525 8.3125 0.3125 8.3125 Z " fill="#3B3E68" transform="translate(115.6875,177.6875)"/>
<path d="M0 0 C6.46575446 0.05659304 10.19285503 0.9843611 15.125 5.25 C19.10963959 9.97253581 18.22997106 16.41313613 17.8125 22.25 C16.12456705 27.50134695 13.62887111 29.6491596 8.8125 32.25 C4.21122603 33.74230507 -2.76909481 34.4592026 -7.1875 32.25 C-7.21215504 27.85343827 -7.23033842 23.4569128 -7.24243164 19.06030273 C-7.24747121 17.56355082 -7.25430287 16.06680384 -7.26293945 14.57006836 C-7.27502159 12.42300193 -7.28073191 10.27600038 -7.28515625 8.12890625 C-7.29039307 6.8354126 -7.29562988 5.54191895 -7.30102539 4.20922852 C-7.10065726 -1.0137008 -4.6784562 0.06343669 0 0 Z M1.8125 8.25 C0.26352015 11.3479597 0.98010461 14.51216552 1.25 17.875 C1.30220703 18.58140625 1.35441406 19.2878125 1.40820312 20.015625 C1.53791207 21.76079987 1.67454954 23.50545725 1.8125 25.25 C6.22360137 24.15726197 6.22360137 24.15726197 9.25 21.0625 C9.96888119 17.46809404 9.66871483 14.8065847 8.8125 11.25 C7.64365894 9.24515224 7.64365894 9.24515224 5.8125 8.25 C4.4925 8.25 3.1725 8.25 1.8125 8.25 Z " fill="#51579D" transform="translate(247.1875,177.75)"/>
<path d="M0 0 C1.27423828 -0.00193359 1.27423828 -0.00193359 2.57421875 -0.00390625 C3.91419922 0.00189453 3.91419922 0.00189453 5.28125 0.0078125 C6.17457031 0.00394531 7.06789062 0.00007812 7.98828125 -0.00390625 C8.83777344 -0.00261719 9.68726563 -0.00132812 10.5625 0 C11.34689453 0.00112793 12.13128906 0.00225586 12.93945312 0.00341797 C14.78125 0.1328125 14.78125 0.1328125 15.78125 1.1328125 C16.03125 4.0703125 16.03125 4.0703125 15.78125 7.1328125 C12.69236478 9.19206931 12.07189073 9.3718499 8.59375 9.2578125 C6.7065625 9.1959375 6.7065625 9.1959375 4.78125 9.1328125 C5.11125 9.7928125 5.44125 10.4528125 5.78125 11.1328125 C7.4828125 11.101875 7.4828125 11.101875 9.21875 11.0703125 C12.78125 11.1328125 12.78125 11.1328125 13.78125 12.1328125 C13.82217937 14.46578683 13.82366723 16.79986475 13.78125 19.1328125 C11.02200815 20.93693217 9.89152897 21.145537 6.53125 20.7578125 C5.62375 20.5515625 4.71625 20.3453125 3.78125 20.1328125 C3.78125 21.4528125 3.78125 22.7728125 3.78125 24.1328125 C4.55210937 24.10960937 5.32296875 24.08640625 6.1171875 24.0625 C7.12007812 24.04445312 8.12296875 24.02640625 9.15625 24.0078125 C10.15398437 23.98460937 11.15171875 23.96140625 12.1796875 23.9375 C14.78125 24.1328125 14.78125 24.1328125 16.78125 26.1328125 C17.09375 28.6328125 17.09375 28.6328125 16.78125 31.1328125 C12.9120871 33.71225443 9.6956021 33.39090187 5.21875 33.3203125 C4.43822266 33.31966797 3.65769531 33.31902344 2.85351562 33.31835938 C-2.93759586 33.27338957 -2.93759586 33.27338957 -5.21875 32.1328125 C-5.24340504 27.73625077 -5.26158842 23.3397253 -5.27368164 18.94311523 C-5.27872121 17.44636332 -5.28555287 15.94961634 -5.29418945 14.45288086 C-5.30627159 12.30581443 -5.31198191 10.15881288 -5.31640625 8.01171875 C-5.32164307 6.7182251 -5.32687988 5.42473145 -5.33227539 4.09204102 C-5.15966828 -0.40725103 -4.08632819 0.00587599 0 0 Z " fill="#5058A2" transform="translate(174.21875,177.8671875)"/>
<path d="M0 0 C1.23556641 0.01740234 1.23556641 0.01740234 2.49609375 0.03515625 C3.32238281 0.04417969 4.14867187 0.05320313 5 0.0625 C5.63808594 0.07410156 6.27617187 0.08570313 6.93359375 0.09765625 C8.41160126 4.30940773 9.87186943 8.5267644 11.31591797 12.75024414 C11.809765 14.18649158 12.3084437 15.62108703 12.81201172 17.05395508 C13.53455269 19.11255553 14.23957389 21.1764497 14.94140625 23.2421875 C15.3708252 24.48331299 15.80024414 25.72443848 16.24267578 27.00317383 C16.47067871 28.02435303 16.69868164 29.04553223 16.93359375 30.09765625 C16.27359375 31.08765625 15.61359375 32.07765625 14.93359375 33.09765625 C11.46859375 32.60265625 11.46859375 32.60265625 7.93359375 32.09765625 C7.27359375 29.78765625 6.61359375 27.47765625 5.93359375 25.09765625 C3.62359375 25.42765625 1.31359375 25.75765625 -1.06640625 26.09765625 C-1.72640625 28.07765625 -2.38640625 30.05765625 -3.06640625 32.09765625 C-9.81640625 33.22265625 -9.81640625 33.22265625 -12.06640625 32.09765625 C-11.4439339 25.30881714 -9.25744702 19.15021989 -7.06640625 12.72265625 C-6.51339844 11.06556641 -6.51339844 11.06556641 -5.94921875 9.375 C-2.8347752 0.13396858 -2.8347752 0.13396858 0 0 Z M0.93359375 12.09765625 C0.93359375 14.07765625 0.93359375 16.05765625 0.93359375 18.09765625 C1.92359375 17.76765625 2.91359375 17.43765625 3.93359375 17.09765625 C3.60359375 15.44765625 3.27359375 13.79765625 2.93359375 12.09765625 C2.27359375 12.09765625 1.61359375 12.09765625 0.93359375 12.09765625 Z " fill="#353862" transform="translate(147.06640625,177.90234375)"/>
<path d="M0 0 C2.0078125 0.5234375 2.0078125 0.5234375 3.53515625 2.359375 C5.6738839 6.95451928 7.18074709 11.69200545 8.6953125 16.5234375 C9.01564453 17.50828125 9.33597656 18.493125 9.66601562 19.5078125 C9.96830078 20.46171875 10.27058594 21.415625 10.58203125 22.3984375 C10.85619873 23.26210937 11.13036621 24.12578125 11.4128418 25.015625 C12.02774525 27.60745443 12.11629636 29.86989268 12.0078125 32.5234375 C9.1953125 33.1484375 9.1953125 33.1484375 6.0078125 33.5234375 C3.0078125 31.5234375 3.0078125 31.5234375 2.3203125 28.3984375 C2.2171875 27.4496875 2.1140625 26.5009375 2.0078125 25.5234375 C-0.6321875 25.5234375 -3.2721875 25.5234375 -5.9921875 25.5234375 C-6.146875 26.9465625 -6.146875 26.9465625 -6.3046875 28.3984375 C-6.9921875 31.5234375 -6.9921875 31.5234375 -9.9921875 33.5234375 C-12.6171875 33.7109375 -12.6171875 33.7109375 -14.9921875 33.5234375 C-15.3221875 33.1934375 -15.6521875 32.8634375 -15.9921875 32.5234375 C-15.53694334 25.75168061 -13.16837496 19.53242799 -10.9921875 13.1484375 C-10.43917969 11.49134766 -10.43917969 11.49134766 -9.875 9.80078125 C-6.73095299 0.47191183 -6.73095299 0.47191183 0 0 Z M-1.9921875 12.5234375 C-3.28852371 13.58988865 -3.28852371 13.58988865 -3.0546875 16.0859375 C-3.0340625 16.8903125 -3.0134375 17.6946875 -2.9921875 18.5234375 C-2.3321875 18.5234375 -1.6721875 18.5234375 -0.9921875 18.5234375 C-0.9921875 16.5434375 -0.9921875 14.5634375 -0.9921875 12.5234375 C-1.3221875 12.5234375 -1.6521875 12.5234375 -1.9921875 12.5234375 Z " fill="#505597" transform="translate(284.9921875,177.4765625)"/>
<path d="M0 0 C0.70125 0.00515625 1.4025 0.0103125 2.125 0.015625 C2.82625 0.01046875 3.5275 0.0053125 4.25 0 C6.125 0.265625 6.125 0.265625 8.125 2.265625 C8.75253866 3.9027526 9.30607224 5.56872952 9.81640625 7.24609375 C10.12126953 8.24576172 10.42613281 9.24542969 10.74023438 10.27539062 C11.05283203 11.32404297 11.36542969 12.37269531 11.6875 13.453125 C12.00396484 14.48244141 12.32042969 15.51175781 12.64648438 16.57226562 C14.22486324 21.8033684 15.56339288 26.82649848 16.125 32.265625 C12.66 32.760625 12.66 32.760625 9.125 33.265625 C6.25 28.515625 6.25 28.515625 5.125 26.265625 C2.80343403 25.85833272 0.4681213 25.52123823 -1.875 25.265625 C-2.535 27.575625 -3.195 29.885625 -3.875 32.265625 C-9.625 33.390625 -9.625 33.390625 -11.875 32.265625 C-11.28567643 25.46822168 -9.54292699 19.3655634 -7.4375 12.890625 C-7.12490234 11.89417969 -6.81230469 10.89773437 -6.49023438 9.87109375 C-3.48088638 0.49312557 -3.48088638 0.49312557 0 0 Z M1.125 12.265625 C0.795 13.915625 0.465 15.565625 0.125 17.265625 C1.115 17.595625 2.105 17.925625 3.125 18.265625 C2.795 16.285625 2.465 14.305625 2.125 12.265625 C1.795 12.265625 1.465 12.265625 1.125 12.265625 Z " fill="#44487E" transform="translate(337.875,177.734375)"/>
<path d="M0 0 C3.1875 1.5 3.1875 1.5 5 3 C4.67 4.65 4.34 6.3 4 8 C-0.3164922 8.76173392 -3.74433453 9.16063604 -8 8 C-6.33521879 11.32956242 -2.73710648 12.09839212 0.5546875 13.5859375 C3.20890837 15.12080643 4.45298295 16.37157297 6 19 C6.52795493 23.1482173 6.47613145 25.23478874 4.25 28.8125 C0.97456475 31.99695094 -1.73689416 33.29372814 -6.3125 33.375 C-11.19137959 33.29422385 -14.01164722 31.71547423 -18 29 C-17.25 24.25 -17.25 24.25 -15 22 C-13.3125 22.3125 -13.3125 22.3125 -11 23 C-8.66905466 23.3496418 -6.33595238 23.68554487 -4 24 C-4 23.34 -4 22.68 -4 22 C-5.03060547 21.51080078 -5.03060547 21.51080078 -6.08203125 21.01171875 C-6.98308594 20.57472656 -7.88414063 20.13773438 -8.8125 19.6875 C-9.70582031 19.25824219 -10.59914063 18.82898438 -11.51953125 18.38671875 C-13.84284589 17.08785781 -15.39083774 16.10549478 -17 14 C-17.5375463 9.2388756 -17.71502323 7.12020305 -15.125 3.0625 C-10.78733131 -1.1475902 -5.7648781 -0.49840445 0 0 Z " fill="#505698" transform="translate(94,178)"/>
<path d="M0 0 C6.75 -0.125 6.75 -0.125 9 1 C10.0703125 2.84765625 10.0703125 2.84765625 11.125 5.0625 C11.47820312 5.79597656 11.83140625 6.52945313 12.1953125 7.28515625 C12.46085937 7.85105469 12.72640625 8.41695312 13 9 C13.27714844 8.43410156 13.55429687 7.86820313 13.83984375 7.28515625 C14.20207031 6.55167969 14.56429688 5.81820312 14.9375 5.0625 C15.29714844 4.33160156 15.65679687 3.60070312 16.02734375 2.84765625 C17 1 17 1 18 0 C20.33297433 -0.04092937 22.66705225 -0.04241723 25 0 C24.49264921 5.05448225 23.36165991 8.70829406 21 13.1875 C17.93596983 19.50614595 17.02514538 25.02215827 17 32 C13.625 32.625 13.625 32.625 10 33 C7.40120342 30.40120342 7.83660962 29.35679973 7.8125 25.75 C7.3932541 18.79890291 4.8566156 14.07236441 1.49609375 8.12890625 C0.02083798 5.04358021 -0.34465109 3.35251517 0 0 Z " fill="#313359" transform="translate(299,178)"/>
<path d="M0 0 C2.64 0 5.28 0 8 0 C8.33 7.92 8.66 15.84 9 24 C12.3 24 15.6 24 19 24 C21.125 28.625 21.125 28.625 20 32 C16.71646451 33.64176774 13.10480362 33.18454039 9.5 33.1875 C8.71496094 33.19974609 7.92992187 33.21199219 7.12109375 33.22460938 C5.07936274 33.22986254 3.03807749 33.1222018 1 33 C-1 31 -1 31 -1.24291992 28.14257812 C-1.23881104 26.95083984 -1.23470215 25.75910156 -1.23046875 24.53125 C-1.22853516 23.23832031 -1.22660156 21.94539063 -1.22460938 20.61328125 C-1.21840576 19.93861816 -1.21220215 19.26395508 -1.20581055 18.56884766 C-1.18757091 16.50801218 -1.18530077 14.44762647 -1.18554688 12.38671875 C-1.14020451 2.28040902 -1.14020451 2.28040902 0 0 Z " fill="#373B6B" transform="translate(199,178)"/>
<path d="M0 0 C0.80830585 4.17468495 1.07867386 7.99254432 0.9140625 12.23828125 C0.87023437 13.38748047 0.82640625 14.53667969 0.78125 15.72070312 C0.7296875 16.90599609 0.678125 18.09128906 0.625 19.3125 C0.58117187 20.51712891 0.53734375 21.72175781 0.4921875 22.96289062 C0.13049769 31.86950231 0.13049769 31.86950231 -1 33 C-7.72 32.28 -7.72 32.28 -9 31 C-9.10005826 28.87819862 -9.13081087 26.75306461 -9.1328125 24.62890625 C-9.13410156 23.33275391 -9.13539062 22.03660156 -9.13671875 20.70117188 C-9.13462402 20.0223999 -9.1325293 19.34362793 -9.13037109 18.64428711 C-9.1250313 16.57463211 -9.13031193 14.505195 -9.13671875 12.43554688 C-9.13542969 11.13810547 -9.13414063 9.84066406 -9.1328125 8.50390625 C-9.13168457 7.30580322 -9.13055664 6.1077002 -9.12939453 4.87329102 C-9 2 -9 2 -8 0 C-5.00463263 -1.13617383 -3.02121511 -0.97110486 0 0 Z " fill="#373B6A" transform="translate(68,178)"/>
<path d="M0 0 C3.1875 1.5 3.1875 1.5 5 3 C4.67 4.65 4.34 6.3 4 8 C-0.3164922 8.76173392 -3.74433453 9.16063604 -8 8 C-6.33521879 11.32956242 -2.73710648 12.09839212 0.5546875 13.5859375 C3.20890837 15.12080643 4.45298295 16.37157297 6 19 C6.52795493 23.1482173 6.47613145 25.23478874 4.25 28.8125 C0.97456475 31.99695094 -1.73689416 33.29372814 -6.3125 33.375 C-11.19137959 33.29422385 -14.01164722 31.71547423 -18 29 C-17.25 24.25 -17.25 24.25 -15 22 C-13.3125 22.3125 -13.3125 22.3125 -11 23 C-8.66905466 23.3496418 -6.33595238 23.68554487 -4 24 C-4 23.34 -4 22.68 -4 22 C-5.03060547 21.51080078 -5.03060547 21.51080078 -6.08203125 21.01171875 C-6.98308594 20.57472656 -7.88414063 20.13773438 -8.8125 19.6875 C-9.70582031 19.25824219 -10.59914063 18.82898438 -11.51953125 18.38671875 C-13.84284589 17.08785781 -15.39083774 16.10549478 -17 14 C-17.5375463 9.2388756 -17.71502323 7.12020305 -15.125 3.0625 C-10.78733131 -1.1475902 -5.7648781 -0.49840445 0 0 Z M-16 6 C-16.66397817 10.14986355 -16.35048538 11.47427193 -14 15 C-11.67190457 15.68473395 -9.33762223 16.34853151 -7 17 C-4.57524121 18.21707854 -2.31740102 19.58118305 0 21 C-1 24 -1 24 -3 25 C-4.70702735 25.06996014 -6.41668003 25.08440154 -8.125 25.0625 C-9.03507812 25.05347656 -9.94515625 25.04445312 -10.8828125 25.03515625 C-11.93082031 25.01775391 -11.93082031 25.01775391 -13 25 C-13.33 26.65 -13.66 28.3 -14 30 C-10.03055337 31.98472331 -5.31673788 31.53492717 -1 31 C2.21827846 28.98068802 3.49610659 27.71185707 4.5703125 24.0625 C4.845415 21.71969165 4.7937605 20.22794139 4 18 C0.41527466 14.57038297 -4.35187971 12.59779135 -9 11 C-8.67 9.68 -8.34 8.36 -8 7 C-5.03 7.33 -2.06 7.66 1 8 C1.66 6.68 2.32 5.36 3 4 C-0.54990974 1.33756769 -3.51885308 0.39903182 -7.99609375 0.5859375 C-11.80571778 1.37311128 -13.45197923 3.06977611 -16 6 Z " fill="#242543" transform="translate(94,178)"/>
<path d="M0 0 C5.00159682 0.03294136 8.63326602 0.23166435 12.8125 3.25 C13.1425 3.91 13.4725 4.57 13.8125 5.25 C13.13832031 4.93289062 12.46414063 4.61578125 11.76953125 4.2890625 C8.28025527 3.06297609 5.18809942 2.83180931 1.5 2.625 C-0.706875 2.50125 -2.91375 2.3775 -5.1875 2.25 C-5.1875 11.49 -5.1875 20.73 -5.1875 30.25 C-1.8875 29.92 1.4125 29.59 4.8125 29.25 C5.1425 28.59 5.4725 27.93 5.8125 27.25 C3.8325 26.92 1.8525 26.59 -0.1875 26.25 C-0.1875 19.65 -0.1875 13.05 -0.1875 6.25 C6.8125 7.25 6.8125 7.25 9.25 9.375 C12.48260439 15.32299208 10.5396269 21.0971104 8.8125 27.25 C9.1425 26.92 9.4725 26.59 9.8125 26.25 C11.1325 26.25 12.4525 26.25 13.8125 26.25 C15.58659808 24.32977297 15.58659808 24.32977297 16.8125 22.25 C16.73381689 25.00390892 16.36859965 26.70888956 14.36328125 28.66015625 C8.17783657 33.26234177 2.38212252 33.75563294 -5.1875 33.25 C-5.8475 32.92 -6.5075 32.59 -7.1875 32.25 C-7.21215504 27.85343827 -7.23033842 23.4569128 -7.24243164 19.06030273 C-7.24747121 17.56355082 -7.25430287 16.06680384 -7.26293945 14.57006836 C-7.27502159 12.42300193 -7.28073191 10.27600038 -7.28515625 8.12890625 C-7.29039307 6.8354126 -7.29562988 5.54191895 -7.30102539 4.20922852 C-7.10065726 -1.0137008 -4.6784562 0.06343669 0 0 Z M1.8125 8.25 C0.26352015 11.3479597 0.98010461 14.51216552 1.25 17.875 C1.30220703 18.58140625 1.35441406 19.2878125 1.40820312 20.015625 C1.53791207 21.76079987 1.67454954 23.50545725 1.8125 25.25 C6.22360137 24.15726197 6.22360137 24.15726197 9.25 21.0625 C9.96888119 17.46809404 9.66871483 14.8065847 8.8125 11.25 C7.64365894 9.24515224 7.64365894 9.24515224 5.8125 8.25 C4.4925 8.25 3.1725 8.25 1.8125 8.25 Z " fill="#333658" transform="translate(247.1875,177.75)"/>
<path d="M0 0 C1.27423828 -0.00193359 1.27423828 -0.00193359 2.57421875 -0.00390625 C3.91419922 0.00189453 3.91419922 0.00189453 5.28125 0.0078125 C6.17457031 0.00394531 7.06789062 0.00007812 7.98828125 -0.00390625 C8.83777344 -0.00261719 9.68726563 -0.00132812 10.5625 0 C11.34689453 0.00112793 12.13128906 0.00225586 12.93945312 0.00341797 C14.78125 0.1328125 14.78125 0.1328125 15.78125 1.1328125 C16.03125 4.0703125 16.03125 4.0703125 15.78125 7.1328125 C12.69236478 9.19206931 12.07189073 9.3718499 8.59375 9.2578125 C6.7065625 9.1959375 6.7065625 9.1959375 4.78125 9.1328125 C5.11125 9.7928125 5.44125 10.4528125 5.78125 11.1328125 C7.4828125 11.101875 7.4828125 11.101875 9.21875 11.0703125 C12.78125 11.1328125 12.78125 11.1328125 13.78125 12.1328125 C13.82217937 14.46578683 13.82366723 16.79986475 13.78125 19.1328125 C11.02200815 20.93693217 9.89152897 21.145537 6.53125 20.7578125 C5.62375 20.5515625 4.71625 20.3453125 3.78125 20.1328125 C3.78125 21.4528125 3.78125 22.7728125 3.78125 24.1328125 C4.55210937 24.10960937 5.32296875 24.08640625 6.1171875 24.0625 C7.12007812 24.04445312 8.12296875 24.02640625 9.15625 24.0078125 C10.15398437 23.98460937 11.15171875 23.96140625 12.1796875 23.9375 C14.78125 24.1328125 14.78125 24.1328125 16.78125 26.1328125 C17.09375 28.6328125 17.09375 28.6328125 16.78125 31.1328125 C12.9120871 33.71225443 9.6956021 33.39090187 5.21875 33.3203125 C4.43822266 33.31966797 3.65769531 33.31902344 2.85351562 33.31835938 C-2.93759586 33.27338957 -2.93759586 33.27338957 -5.21875 32.1328125 C-5.24340504 27.73625077 -5.26158842 23.3397253 -5.27368164 18.94311523 C-5.27872121 17.44636332 -5.28555287 15.94961634 -5.29418945 14.45288086 C-5.30627159 12.30581443 -5.31198191 10.15881288 -5.31640625 8.01171875 C-5.32164307 6.7182251 -5.32687988 5.42473145 -5.33227539 4.09204102 C-5.15966828 -0.40725103 -4.08632819 0.00587599 0 0 Z M-4.21875 3.1328125 C-4.30642112 5.20543326 -4.32570873 7.28101544 -4.31640625 9.35546875 C-4.31318359 10.61552734 -4.30996094 11.87558594 -4.30664062 13.17382812 C-4.29828403 14.51432359 -4.28981907 15.85481838 -4.28125 17.1953125 C-4.2762366 18.53971192 -4.27167342 19.8841131 -4.26757812 21.22851562 C-4.25574497 24.52996683 -4.23780886 27.8313951 -4.21875 31.1328125 C2.05125 31.1328125 8.32125 31.1328125 14.78125 31.1328125 C14.78125 29.4828125 14.78125 27.8328125 14.78125 26.1328125 C10.49125 26.1328125 6.20125 26.1328125 1.78125 26.1328125 C1.78125 23.4928125 1.78125 20.8528125 1.78125 18.1328125 C5.41125 18.1328125 9.04125 18.1328125 12.78125 18.1328125 C12.78125 16.4828125 12.78125 14.8328125 12.78125 13.1328125 C9.48125 13.1328125 6.18125 13.1328125 2.78125 13.1328125 C2.78125 10.8228125 2.78125 8.5128125 2.78125 6.1328125 C6.41125 6.1328125 10.04125 6.1328125 13.78125 6.1328125 C13.78125 4.8128125 13.78125 3.4928125 13.78125 2.1328125 C10.96868719 2.10596938 8.15637759 2.08605062 5.34375 2.0703125 C4.54130859 2.06193359 3.73886719 2.05355469 2.91210938 2.04492188 C-0.96311907 1.6358429 -0.96311907 1.6358429 -4.21875 3.1328125 Z " fill="#222136" transform="translate(174.21875,177.8671875)"/>
<path d="M0 0 C2.05078125 0.03255208 4.1015625 0.06510417 6.15234375 0.09765625 C7.67586061 6.73583686 8.97378643 13.38990982 10.15234375 20.09765625 C9.49234375 20.42765625 8.83234375 20.75765625 8.15234375 21.09765625 C5.27979309 18.67570177 4.44395456 16.50022922 3.46484375 12.91015625 C3.08779297 11.55857422 3.08779297 11.55857422 2.703125 10.1796875 C2.52136719 9.49261719 2.33960938 8.80554688 2.15234375 8.09765625 C0.36985195 11.430771 -0.33558481 14.34246568 -0.84765625 18.09765625 C0.14234375 18.09765625 1.13234375 18.09765625 2.15234375 18.09765625 C2.15234375 18.75765625 2.15234375 19.41765625 2.15234375 20.09765625 C0.50234375 20.42765625 -1.14765625 20.75765625 -2.84765625 21.09765625 C-2.84765625 21.75765625 -2.84765625 22.41765625 -2.84765625 23.09765625 C-3.50765625 23.09765625 -4.16765625 23.09765625 -4.84765625 23.09765625 C-5.17765625 24.41765625 -5.50765625 25.73765625 -5.84765625 27.09765625 C-6.50765625 27.09765625 -7.16765625 27.09765625 -7.84765625 27.09765625 C-7.73355943 24.99287021 -7.60600264 22.88881048 -7.47265625 20.78515625 C-7.40304687 19.61339844 -7.3334375 18.44164062 -7.26171875 17.234375 C-6.84765625 14.09765625 -6.84765625 14.09765625 -4.84765625 11.09765625 C-4.43343823 9.40288186 -4.08334798 7.69164389 -3.78515625 5.97265625 C-2.76339022 0.14605657 -2.76339022 0.14605657 0 0 Z " fill="#505597" transform="translate(337.84765625,179.90234375)"/>
<path d="M0 0 C12 0 12 0 17 2 C17 3.98 17 5.96 17 8 C16.01 8.33 15.02 8.66 14 9 C13.67 7.68 13.34 6.36 13 5 C8.545 4.01 8.545 4.01 4 3 C4 6.63 4 10.26 4 14 C6.413125 13.7834375 6.413125 13.7834375 8.875 13.5625 C9.77992187 13.48128906 10.68484375 13.40007812 11.6171875 13.31640625 C14.01110861 13.13010715 14.01110861 13.13010715 16 12 C16 12.99 16 13.98 16 15 C15.34 15 14.68 15 14 15 C14.66 17.97 15.32 20.94 16 24 C15.01 24.66 14.02 25.32 13 26 C9 19.25 9 19.25 9 17 C7.02 17 5.04 17 3 17 C3 19.97 3 22.94 3 26 C2.01 26 1.02 26 0 26 C0 17.42 0 8.84 0 0 Z " fill="#50579F" transform="translate(110,181)"/>
<path d="M0 0 C3.75 0.5625 3.75 0.5625 5.21875 2.171875 C6.50612645 4.2599368 7.63639572 6.37724229 8.75 8.5625 C9.74061912 10.23475941 10.73848283 11.90279798 11.75 13.5625 C11.84087891 12.28052734 11.84087891 12.28052734 11.93359375 10.97265625 C12.01738281 9.86792969 12.10117187 8.76320312 12.1875 7.625 C12.26871094 6.52285156 12.34992188 5.42070312 12.43359375 4.28515625 C12.75 1.5625 12.75 1.5625 13.75 0.5625 C16.75 0.4375 16.75 0.4375 19.75 0.5625 C20.75 1.5625 20.75 1.5625 20.86352539 4.52172852 C20.85828857 5.81522217 20.85305176 7.10871582 20.84765625 8.44140625 C20.8462413 9.1280687 20.84482635 9.81473114 20.84336853 10.52220154 C20.83775479 12.72317801 20.82520007 14.92405409 20.8125 17.125 C20.80748676 18.61393083 20.80292355 20.10286324 20.79882812 21.59179688 C20.78778093 25.24873075 20.77050713 28.90560558 20.75 32.5625 C15.02148438 33.62792969 15.02148438 33.62792969 12.578125 33.0390625 C8.40281981 29.66670061 6.79670908 23.30714378 4.75 18.5625 C4.42 23.1825 4.09 27.8025 3.75 32.5625 C-2.25 33.5625 -2.25 33.5625 -4.25 32.5625 C-4.27465504 28.16593827 -4.29283842 23.7694128 -4.30493164 19.37280273 C-4.30997121 17.87605082 -4.31680287 16.37930384 -4.32543945 14.88256836 C-4.33752159 12.73550193 -4.34323191 10.58850038 -4.34765625 8.44140625 C-4.35289307 7.1479126 -4.35812988 5.85441895 -4.36352539 4.52172852 C-4.20479794 0.38423286 -4.13006706 0.7148193 0 0 Z M-3.25 2.5625 C-3.25 12.1325 -3.25 21.7025 -3.25 31.5625 C-1.27 31.5625 0.71 31.5625 2.75 31.5625 C3.08 25.9525 3.41 20.3425 3.75 14.5625 C6.72 20.1725 9.69 25.7825 12.75 31.5625 C15.06 31.5625 17.37 31.5625 19.75 31.5625 C19.75 21.9925 19.75 12.4225 19.75 2.5625 C17.77 2.5625 15.79 2.5625 13.75 2.5625 C13.42 7.8425 13.09 13.1225 12.75 18.5625 C8.875 11.6875 8.875 11.6875 7.66455078 9.52783203 C6.19159573 6.93290819 4.86930165 4.68180165 2.75 2.5625 C0.77 2.5625 -1.21 2.5625 -3.25 2.5625 Z " fill="#21213B" transform="translate(364.25,177.4375)"/>
<path d="M0 0 C3.43672232 1.79307251 4.22574967 3.03222144 5.875 6.5 C6.16796875 9.61328125 6.16796875 9.61328125 6.0625 12.8125 C6.03542969 13.88113281 6.00835937 14.94976562 5.98046875 16.05078125 C5.94566406 16.85902344 5.91085937 17.66726562 5.875 18.5 C5.215 18.5 4.555 18.5 3.875 18.5 C3.66875 19.304375 3.4625 20.10875 3.25 20.9375 C2.569375 22.2059375 2.569375 22.2059375 1.875 23.5 C-1.25 24.3125 -1.25 24.3125 -4.125 24.5 C-3.980625 23.93152344 -3.83625 23.36304688 -3.6875 22.77734375 C-1.42492932 14.33268478 -1.42492932 14.33268478 -3.4375 6.1875 C-5.21897231 4.29571236 -5.21897231 4.29571236 -8.125 2.5 C-5.10317942 0.18919603 -3.83305675 -0.61328908 0 0 Z " fill="#4F57A2" transform="translate(259.125,181.5)"/>
<path d="M0 0 C0.66 0 1.32 0 2 0 C2.33872513 1.41538717 2.67074624 2.83237963 3 4.25 C3.185625 5.03890625 3.37125 5.8278125 3.5625 6.640625 C4 9 4 9 4 13 C2.68 13 1.36 13 0 13 C0 13.99 0 14.98 0 16 C1.98 16 3.96 16 6 16 C6.33 18.64 6.66 21.28 7 24 C5 21 5 21 5 18 C2.36 18 -0.28 18 -3 18 C-3.1546875 19.423125 -3.1546875 19.423125 -3.3125 20.875 C-4 24 -4 24 -7 26 C-9.625 26.1875 -9.625 26.1875 -12 26 C-12.33 25.67 -12.66 25.34 -13 25 C-12.52221247 19.71741961 -11.17702722 15.02770516 -9.4375 10.0625 C-9.20353516 9.37865234 -8.96957031 8.69480469 -8.72851562 7.99023438 C-8.15788171 6.32491499 -7.57972902 4.66217507 -7 3 C-5.68947233 7.30422506 -6.54214448 10.9370534 -7.4375 15.25 C-7.65889648 16.36761719 -7.65889648 16.36761719 -7.88476562 17.5078125 C-8.2488694 19.34007665 -8.62341409 21.17026053 -9 23 C-8.01 23 -7.02 23 -6 23 C-4.74350684 17.43553031 -3.57506143 11.87601025 -2.5625 6.26171875 C-1.98789514 3.95132838 -1.14287396 2.08098301 0 0 Z M1 5 C-0.29633621 6.06645115 -0.29633621 6.06645115 -0.0625 8.5625 C-0.041875 9.366875 -0.02125 10.17125 0 11 C0.66 11 1.32 11 2 11 C2 9.02 2 7.04 2 5 C1.67 5 1.34 5 1 5 Z " fill="#373B60" transform="translate(282,185)"/>
<path d="M0 0 C1.65 0 3.3 0 5 0 C6.32 2.64 7.64 5.28 9 8 C9.33 5.36 9.66 2.72 10 0 C10.99 0 11.98 0 13 0 C13 5.61 13 11.22 13 17 C9 16 9 16 7.734375 14.37109375 C6.82291667 12.58072917 5.91145833 10.79036458 5 9 C4.67 11.64 4.34 14.28 4 17 C2.68 17 1.36 17 0 17 C0 11.39 0 5.78 0 0 Z " fill="#A19F9F" transform="translate(169,221)"/>
<path d="M0 0 C3.96 0 7.92 0 12 0 C13 5 13 5 11 9 C11.348071 11.85418219 12.0895978 14.26879341 13 17 C11.68 17 10.36 17 9 17 C6 12.92857143 6 12.92857143 6 10 C5.34 10 4.68 10 4 10 C4 12.31 4 14.62 4 17 C2.68 17 1.36 17 0 17 C0 11.39 0 5.78 0 0 Z M4 3 C4 4.32 4 5.64 4 7 C5.65 6.67 7.3 6.34 9 6 C9 5.01 9 4.02 9 3 C7.35 3 5.7 3 4 3 Z " fill="#898786" transform="translate(267,221)"/>
<path d="M0 0 C1.58206057 0.00667536 3.16410534 0.0186375 4.74609375 0.03515625 C5.55240234 0.03966797 6.35871094 0.04417969 7.18945312 0.04882812 C9.18753131 0.06065107 11.18557158 0.07858711 13.18359375 0.09765625 C13.18359375 1.41765625 13.18359375 2.73765625 13.18359375 4.09765625 C9.55359375 4.09765625 5.92359375 4.09765625 2.18359375 4.09765625 C2.18359375 6.40765625 2.18359375 8.71765625 2.18359375 11.09765625 C1.85359375 11.09765625 1.52359375 11.09765625 1.18359375 11.09765625 C1.18359375 8.12765625 1.18359375 5.15765625 1.18359375 2.09765625 C-0.13640625 1.76765625 -1.45640625 1.43765625 -2.81640625 1.09765625 C-2.48640625 9.67765625 -2.15640625 18.25765625 -1.81640625 27.09765625 C3.13359375 27.42765625 8.08359375 27.75765625 13.18359375 28.09765625 C13.18359375 27.10765625 13.18359375 26.11765625 13.18359375 25.09765625 C9.55359375 25.09765625 5.92359375 25.09765625 2.18359375 25.09765625 C2.18359375 24.76765625 2.18359375 24.43765625 2.18359375 24.09765625 C6.14359375 24.09765625 10.10359375 24.09765625 14.18359375 24.09765625 C14.18359375 25.74765625 14.18359375 27.39765625 14.18359375 29.09765625 C7.91359375 29.09765625 1.64359375 29.09765625 -4.81640625 29.09765625 C-4.83932112 25.12829075 -4.8592464 21.15909305 -4.87133789 17.18969727 C-4.87637682 15.83845239 -4.88320802 14.48721299 -4.8918457 13.13598633 C-4.90393044 11.19745191 -4.90910453 9.25887825 -4.9140625 7.3203125 C-4.91929932 6.15250244 -4.92453613 4.98469238 -4.92993164 3.78149414 C-4.75201514 -0.42460498 -4.40383554 0.11268771 0 0 Z " fill="#4F5286" transform="translate(174.81640625,179.90234375)"/>
<path d="M0 0 C2 2 2 2 2.1875 5 C2 8 2 8 1 10 C0.34 10 -0.32 10 -1 10 C-0.505 10.94875 -0.01 11.8975 0.5 12.875 C2 16 2 16 2 18 C0.68 18 -0.64 18 -2 18 C-2.45375 17.030625 -2.9075 16.06125 -3.375 15.0625 C-4.65786221 11.92920418 -4.65786221 11.92920418 -7 11 C-7 13.31 -7 15.62 -7 18 C-7.99 18 -8.98 18 -10 18 C-10 12.39 -10 6.78 -10 1 C-6.47940432 -0.17353189 -3.693507 -0.20146402 0 0 Z M-7 4 C-7 5.32 -7 6.64 -7 8 C-5.35 8 -3.7 8 -2 8 C-2 6.68 -2 5.36 -2 4 C-3.65 4 -5.3 4 -7 4 Z " fill="#E3E1E0" transform="translate(113,220)"/>
<path d="M0 0 C3 2 3 2 3.875 5.1875 C4.02767274 9.84401866 3.19194744 11.94083808 1 16 C-1.84083641 17.42041821 -3.85477278 17.31452272 -7 17 C-10.2414382 14.80983905 -10.90604765 13.3690985 -11.875 9.5625 C-12.00181077 5.94839311 -11.8487005 4.08116751 -10 1 C-6.66575306 -1.61976545 -3.95808256 -1.01057427 0 0 Z M-7 3 C-8.50662097 6.01324195 -8.17770373 8.68286377 -8 12 C-7.34 12.66 -6.68 13.32 -6 14 C-3.39719432 13.67958603 -3.39719432 13.67958603 -1 13 C0.19988045 7.71800407 0.19988045 7.71800407 -2 3 C-4.58380177 2.74969023 -4.58380177 2.74969023 -7 3 Z " fill="#A8A4A5" transform="translate(156,221)"/>
<path d="M0 0 C0.268125 0.556875 0.53625 1.11375 0.8125 1.6875 C2.10122647 4.19712523 3.52926478 6.59334236 5 9 C5.33 6.36 5.66 3.72 6 1 C7.32 1 8.64 1 10 1 C9.67 6.61 9.34 12.22 9 18 C5 17 5 17 3.734375 15.37109375 C2.82291667 13.58072917 1.91145833 11.79036458 1 10 C0.67 12.64 0.34 15.28 0 18 C-0.99 18 -1.98 18 -3 18 C-3.33 12.39 -3.66 6.78 -4 1 C-2.68 0.67 -1.36 0.34 0 0 Z " fill="#8F8B8A" transform="translate(328,220)"/>
<path d="M0 0 C1.23556641 0.01740234 1.23556641 0.01740234 2.49609375 0.03515625 C3.32238281 0.04417969 4.14867187 0.05320313 5 0.0625 C5.63808594 0.07410156 6.27617187 0.08570313 6.93359375 0.09765625 C7.80121689 2.34326907 8.65280405 4.5929188 9.49609375 6.84765625 C9.74294922 7.481875 9.98980469 8.11609375 10.24414062 8.76953125 C11.51556454 12.20774804 12.4004573 14.61934507 10.93359375 18.09765625 C10.60359375 17.10765625 10.27359375 16.11765625 9.93359375 15.09765625 C9.43214844 14.63746094 8.93070313 14.17726562 8.4140625 13.703125 C6.48644303 11.61275138 6.44914694 10.2122903 6.24609375 7.41015625 C6.14748047 6.19779297 6.14748047 6.19779297 6.046875 4.9609375 C6.00949219 4.34605469 5.97210938 3.73117188 5.93359375 3.09765625 C3.62359375 3.09765625 1.31359375 3.09765625 -1.06640625 3.09765625 C-1.39640625 4.74765625 -1.72640625 6.39765625 -2.06640625 8.09765625 C-0.41640625 7.43765625 1.23359375 6.77765625 2.93359375 6.09765625 C5.21930804 14.52622768 5.21930804 14.52622768 4.93359375 19.09765625 C2.29359375 19.09765625 -0.34640625 19.09765625 -3.06640625 19.09765625 C-2.57140625 14.64265625 -2.57140625 14.64265625 -2.06640625 10.09765625 C-3.05640625 10.59265625 -3.05640625 10.59265625 -4.06640625 11.09765625 C-4.75369879 13.2161191 -4.75369879 13.2161191 -5.19140625 15.66015625 C-5.35898438 16.48644531 -5.5265625 17.31273437 -5.69921875 18.1640625 C-5.82039062 18.80214844 -5.9415625 19.44023437 -6.06640625 20.09765625 C-6.72640625 20.09765625 -7.38640625 20.09765625 -8.06640625 20.09765625 C-7.59060292 14.86381964 -6.20720509 0.29334618 0 0 Z M0.93359375 12.09765625 C0.93359375 14.07765625 0.93359375 16.05765625 0.93359375 18.09765625 C1.92359375 17.76765625 2.91359375 17.43765625 3.93359375 17.09765625 C3.60359375 15.44765625 3.27359375 13.79765625 2.93359375 12.09765625 C2.27359375 12.09765625 1.61359375 12.09765625 0.93359375 12.09765625 Z " fill="#3A3D68" transform="translate(147.06640625,177.90234375)"/>
<path d="M0 0 C3.96 0 7.92 0 12 0 C13.38550197 2.77100394 13.1877467 4.9334706 13 8 C12.01 9.485 12.01 9.485 11 11 C11.99 12.485 11.99 12.485 13 14 C13 14.99 13 15.98 13 17 C11.125 16.875 11.125 16.875 9 16 C7.75 12.9375 7.75 12.9375 7 10 C6.01 10 5.02 10 4 10 C4 12.31 4 14.62 4 17 C3.01 17 2.02 17 1 17 C0.67 11.39 0.34 5.78 0 0 Z M4 3 C4 4.32 4 5.64 4 7 C5.65 7 7.3 7 9 7 C9 5.68 9 4.36 9 3 C7.35 3 5.7 3 4 3 Z " fill="#F5F4F3" transform="translate(368,221)"/>
<path d="M0 0 C2 2 2 2 2.4375 4.875 C2 8 2 8 -0.375 10.375 C-3 12 -3 12 -5 12 C-5.33 13.65 -5.66 15.3 -6 17 C-7.32 17 -8.64 17 -10 17 C-10 11.39 -10 5.78 -10 0 C-6.25976024 -1.24674659 -3.83399823 -0.76679965 0 0 Z M-6 3 C-5 5 -5 5 -5 5 Z M-4 3 C-3.67 4.32 -3.34 5.64 -3 7 C-2.34 7 -1.68 7 -1 7 C-1.33 5.68 -1.66 4.36 -2 3 C-2.66 3 -3.32 3 -4 3 Z M-6 6 C-6 6.66 -6 7.32 -6 8 C-5.01 7.67 -4.02 7.34 -3 7 C-3.99 6.67 -4.98 6.34 -6 6 Z " fill="#BEBDBD" transform="translate(70,221)"/>
<path d="M0 0 C0 1.32 0 2.64 0 4 C-2.31 4 -4.62 4 -7 4 C-7 4.99 -7 5.98 -7 7 C-5.02 7 -3.04 7 -1 7 C-1.33 8.65 -1.66 10.3 -2 12 C-4.475 11.01 -4.475 11.01 -7 10 C-7 11.65 -7 13.3 -7 15 C-4.69 15 -2.38 15 0 15 C0 15.99 0 16.98 0 18 C-3.63 18 -7.26 18 -11 18 C-11 12.39 -11 6.78 -11 1 C-4 0 -4 0 0 0 Z " fill="#9A9999" transform="translate(359,220)"/>
<path d="M0 0 C0.70125 0.00515625 1.4025 0.0103125 2.125 0.015625 C2.82625 0.01046875 3.5275 0.0053125 4.25 0 C6.125 0.265625 6.125 0.265625 8.125 2.265625 C8.75253866 3.9027526 9.30607224 5.56872952 9.81640625 7.24609375 C10.12126953 8.24576172 10.42613281 9.24542969 10.74023438 10.27539062 C11.05283203 11.32404297 11.36542969 12.37269531 11.6875 13.453125 C12.00396484 14.48244141 12.32042969 15.51175781 12.64648438 16.57226562 C14.22486324 21.8033684 15.56339288 26.82649848 16.125 32.265625 C12.66 32.760625 12.66 32.760625 9.125 33.265625 C8.795 32.605625 8.465 31.945625 8.125 31.265625 C10.105 30.935625 12.085 30.605625 14.125 30.265625 C13.88265625 29.48848145 13.6403125 28.71133789 13.390625 27.91064453 C12.29917014 24.40487054 11.21203217 20.89777272 10.125 17.390625 C9.7434375 16.16730469 9.361875 14.94398438 8.96875 13.68359375 C8.6078125 12.51699219 8.246875 11.35039062 7.875 10.1484375 C7.53984375 9.06965332 7.2046875 7.99086914 6.859375 6.87939453 C6.125 4.265625 6.125 4.265625 6.125 2.265625 C3.485 2.595625 0.845 2.925625 -1.875 3.265625 C-1.97296875 3.88308594 -2.0709375 4.50054687 -2.171875 5.13671875 C-3.12014686 10.50753436 -4.51124361 15.09889811 -6.85546875 20.015625 C-8.50636444 23.658981 -9.68477177 27.45148455 -10.875 31.265625 C-7.94056598 30.99905928 -7.94056598 30.99905928 -4.875 30.265625 C-4.215 29.275625 -3.555 28.285625 -2.875 27.265625 C-3.205 28.915625 -3.535 30.565625 -3.875 32.265625 C-9.625 33.390625 -9.625 33.390625 -11.875 32.265625 C-11.28567643 25.46822168 -9.54292699 19.3655634 -7.4375 12.890625 C-7.12490234 11.89417969 -6.81230469 10.89773437 -6.49023438 9.87109375 C-3.48088638 0.49312557 -3.48088638 0.49312557 0 0 Z " fill="#25243D" transform="translate(337.875,177.734375)"/>
<path d="M0 0 C2.54283234 -0.10871967 5.08095088 -0.18762401 7.625 -0.25 C8.33785156 -0.28351563 9.05070312 -0.31703125 9.78515625 -0.3515625 C14.99105002 -0.44708349 17.86549155 0.56517759 22 4 C23.71316857 7.42633714 23.40976083 11.24497859 23 15 C21.4375 17.3125 21.4375 17.3125 20 19 C20.10250596 22.07517875 21.34560263 23.49807438 23.125 26.0625 C23.74375 27.031875 24.3625 28.00125 25 29 C24.67 29.99 24.34 30.98 24 32 C18.375 33.125 18.375 33.125 15 32 C13.8125 28.9375 13.8125 28.9375 13 26 C13.66 26.33 14.32 26.66 15 27 C17.36692966 24.15173402 17.36692966 24.15173402 16.625 20.8125 C16.315625 19.4203125 16.315625 19.4203125 16 18 C16.9590625 17.566875 16.9590625 17.566875 17.9375 17.125 C20.15206079 16.17176549 20.15206079 16.17176549 21 14 C21.09109759 11.88617776 21.09109759 11.88617776 20.875 9.5625 C20.83117187 8.78003906 20.78734375 7.99757812 20.7421875 7.19140625 C20.15031197 4.82189423 20.15031197 4.82189423 17.93359375 3.2578125 C14.34774675 1.72033882 11.03130493 1.44123988 7.1875 1.3125 C6.14819336 1.26125977 6.14819336 1.26125977 5.08789062 1.20898438 C3.39247151 1.12713656 1.69626542 1.06187635 0 1 C0 0.67 0 0.34 0 0 Z " fill="#36385F" transform="translate(108,178)"/>
<path d="M0 0 C0 1.32 0 2.64 0 4 C-2.31 4.33 -4.62 4.66 -7 5 C-7 5.33 -7 5.66 -7 6 C-5.35 6.33 -3.7 6.66 -2 7 C-1.67 8.32 -1.34 9.64 -1 11 C-2.98 11 -4.96 11 -7 11 C-7.33 12.32 -7.66 13.64 -8 15 C-5.36 15 -2.72 15 0 15 C0 15.99 0 16.98 0 18 C-3.63 18 -7.26 18 -11 18 C-11 12.39 -11 6.78 -11 1 C-3 0 -3 0 0 0 Z " fill="#A5A3A1" transform="translate(93,220)"/>
<path d="M0 0 C0 1.32 0 2.64 0 4 C-1.65 4.33 -3.3 4.66 -5 5 C-4.030625 5.5775 -3.06125 6.155 -2.0625 6.75 C1 9 1 9 2.0625 11 C2 13 2 13 1 15.25 C-1 17 -1 17 -4.5 17.4375 C-8 17 -8 17 -9.9375 15.5 C-10.288125 15.005 -10.63875 14.51 -11 14 C-10.67 13.34 -10.34 12.68 -10 12 C-7.69 12.33 -5.38 12.66 -3 13 C-3 12.34 -3 11.68 -3 11 C-3.969375 10.525625 -4.93875 10.05125 -5.9375 9.5625 C-9 8 -9 8 -10 7 C-10.3125 4.625 -10.3125 4.625 -10 2 C-6.86993817 -1.6116098 -4.40477201 -1.101193 0 0 Z " fill="#B3AFAD" transform="translate(134,221)"/>
<path d="M0 0 C1.98 0 3.96 0 6 0 C6 0.66 6 1.32 6 2 C6.66 2 7.32 2 8 2 C8.50615298 3.26839526 9.00469099 4.53983102 9.5 5.8125 C9.7784375 6.52019531 10.056875 7.22789062 10.34375 7.95703125 C11 10 11 10 11 13 C11.99 12.67 12.98 12.34 14 12 C14.33 12.99 14.66 13.98 15 15 C14.67 15.33 14.34 15.66 14 16 C13.79231771 17.47396739 13.63283983 18.9549126 13.5 20.4375 C13.10958904 24.78082192 13.10958904 24.78082192 12 27 C11.34 27 10.68 27 10 27 C9.93941406 26.25234375 9.87882812 25.5046875 9.81640625 24.734375 C9.73261719 23.74953125 9.64882813 22.7646875 9.5625 21.75 C9.48128906 20.77546875 9.40007812 19.8009375 9.31640625 18.796875 C9.04925416 16.43538247 8.64628032 14.28098935 8 12 C7.01 12 6.02 12 5 12 C4.16440201 10.18854294 3.33157951 8.37580533 2.5 6.5625 C2.0359375 5.55316406 1.571875 4.54382813 1.09375 3.50390625 C0 1 0 1 0 0 Z " fill="#505692" transform="translate(300,180)"/>
<path d="M0 0 C1.65 0 3.3 0 5 0 C5.67364661 2.08108685 6.33866798 4.1649671 7 6.25 C7.37125 7.41015625 7.7425 8.5703125 8.125 9.765625 C9 13 9 13 9 17 C8.01 17 7.02 17 6 17 C5.67 15.35 5.34 13.7 5 12 C3.02 12 1.04 12 -1 12 C-1.33 13.65 -1.66 15.3 -2 17 C-2.99 17 -3.98 17 -5 17 C-3.83348574 11.07136283 -2.24480642 5.61201606 0 0 Z M2 5 C1.67 6.32 1.34 7.64 1 9 C1.66 9 2.32 9 3 9 C2.67 7.68 2.34 6.36 2 5 Z " fill="#F1F0EF" transform="translate(196,221)"/>
<path d="M0 0 C1.65 0 3.3 0 5 0 C5 9.24 5 18.48 5 28 C3.35 27.67 1.7 27.34 0 27 C0.165 26.319375 0.33 25.63875 0.5 24.9375 C1.18082756 20.93763809 1.85791887 16.71583773 0 13 C-0.07092842 10.7927077 -0.08415025 8.58332548 -0.0625 6.375 C-0.05347656 5.18648437 -0.04445313 3.99796875 -0.03515625 2.7734375 C-0.02355469 1.85820312 -0.01195312 0.94296875 0 0 Z " fill="#5157A3" transform="translate(378,180)"/>
<path d="M0 0 C1.65 0 3.3 0 5 0 C5.67364661 2.08108685 6.33866798 4.1649671 7 6.25 C7.37125 7.41015625 7.7425 8.5703125 8.125 9.765625 C9 13 9 13 9 17 C8.01 17 7.02 17 6 17 C6 16.34 6 15.68 6 15 C5.34 14.67 4.68 14.34 4 14 C4.33 13.34 4.66 12.68 5 12 C2.55519921 12.18828772 2.55519921 12.18828772 0 13 C-1.36020151 14.96758273 -1.36020151 14.96758273 -2 17 C-2.99 17 -3.98 17 -5 17 C-1.92482916 5.47835991 -1.92482916 5.47835991 0 0 Z M2 5 C1.67 6.32 1.34 7.64 1 9 C1.99 8.67 2.98 8.34 4 8 C3.34 7.01 2.68 6.02 2 5 Z " fill="#B0ADAC" transform="translate(292,221)"/>
<path d="M0 0 C5.95703125 -0.48828125 5.95703125 -0.48828125 8 0 C11.69244459 4.41774621 12.9915637 10.58999861 14.6875 16 C15.00783203 16.98484375 15.32816406 17.9696875 15.65820312 18.984375 C15.96048828 19.93828125 16.26277344 20.8921875 16.57421875 21.875 C16.84838623 22.73867187 17.12255371 23.60234375 17.4050293 24.4921875 C18.01993275 27.08401693 18.10848386 29.34645518 18 32 C15.125 32.625 15.125 32.625 12 33 C11.34 32.34 10.68 31.68 10 31 C12.31 31 14.62 31 17 31 C16.525625 29.906875 16.05125 28.81375 15.5625 27.6875 C14.59812191 25.46523745 13.76833172 23.30499515 13 21 C12.34 21 11.68 21 11 21 C10.87882812 20.443125 10.75765625 19.88625 10.6328125 19.3125 C9.50669922 14.18435338 8.29514693 9.08807722 7 4 C4.69 3.34 2.38 2.68 0 2 C-0.66 4.64 -1.32 7.28 -2 10 C-3.19156292 5.23374833 -2.3415946 4.12120649 0 0 Z " fill="#323457" transform="translate(279,178)"/>
<path d="M0 0 C3 2 3 2 3.65234375 4.0234375 C4.42946202 10.43200185 4.42946202 10.43200185 2.0625 13.5625 C1.381875 14.036875 0.70125 14.51125 0 15 C-0.66 14.67 -1.32 14.34 -2 14 C-3.70702735 13.93003986 -5.41668003 13.91559846 -7.125 13.9375 C-8.73375 13.958125 -10.3425 13.97875 -12 14 C-12 10.37 -12 6.74 -12 3 C-5.375 2.75 -5.375 2.75 -2 5 C-1.67 5.99 -1.34 6.98 -1 8 C-0.34 8 0.32 8 1 8 C1 6.02 1 4.04 1 2 C-0.32 1.67 -1.64 1.34 -3 1 C-2.01 0.67 -1.02 0.34 0 0 Z M-10 5 C-10 6.98 -10 8.96 -10 11 C-8.33388095 11.042721 -6.66617115 11.04063832 -5 11 C-3.70366379 9.93354885 -3.70366379 9.93354885 -3.9375 7.4375 C-3.958125 6.633125 -3.97875 5.82875 -4 5 C-5.98 5 -7.96 5 -10 5 Z " fill="#4F5593" transform="translate(126,181)"/>
<path d="M0 0 C1.32 0 2.64 0 4 0 C4.38218767 1.65614657 4.71395102 3.32457024 5 5 C4.67 5.33 4.34 5.66 4 6 C3.84313751 7.55948542 3.74923361 9.12542668 3.68359375 10.69140625 C3.64169922 11.63564453 3.59980469 12.57988281 3.55664062 13.55273438 C3.51732422 14.54595703 3.47800781 15.53917969 3.4375 16.5625 C3.37272461 18.05813477 3.37272461 18.05813477 3.30664062 19.58398438 C3.20019702 22.0558415 3.09818072 24.5278031 3 27 C1.68 27 0.36 27 -1 27 C-1.02886537 22.68751391 -1.04675255 18.37505238 -1.0625 14.0625 C-1.07087891 12.83080078 -1.07925781 11.59910156 -1.08789062 10.33007812 C-1.09111328 9.16025391 -1.09433594 7.99042969 -1.09765625 6.78515625 C-1.10289307 5.70113525 -1.10812988 4.61711426 -1.11352539 3.50024414 C-1 1 -1 1 0 0 Z " fill="#50579F" transform="translate(363,181)"/>
<path d="M0 0 C-0.14308594 0.92232422 -0.14308594 0.92232422 -0.2890625 1.86328125 C-0.45535156 3.07564453 -0.45535156 3.07564453 -0.625 4.3125 C-0.74101562 5.11300781 -0.85703125 5.91351563 -0.9765625 6.73828125 C-1.21533407 9.28723215 -1.21533407 9.28723215 1 12 C0.34 12.66 -0.32 13.32 -1 14 C-1.67292501 15.96690374 -1.67292501 15.96690374 -2.125 18.125 C-2.41375 19.40375 -2.7025 20.6825 -3 22 C-5.31 22 -7.62 22 -10 22 C-8.515 16.555 -8.515 16.555 -7 11 C-6.34 11 -5.68 11 -5 11 C-4.96261719 10.37351563 -4.92523438 9.74703125 -4.88671875 9.1015625 C-4.82097656 8.28429687 -4.75523437 7.46703125 -4.6875 6.625 C-4.62949219 5.81289062 -4.57148438 5.00078125 -4.51171875 4.1640625 C-3.93288652 1.71617658 -2.91559758 0 0 0 Z " fill="#4F5699" transform="translate(146,187)"/>
<path d="M0 0 C1.98 0 3.96 0 6 0 C6 8.25 6 16.5 6 25 C5.67 25 5.34 25 5 25 C5 17.41 5 9.82 5 2 C3.68 2 2.36 2 1 2 C1.33 10.58 1.66 19.16 2 28 C8.93 28.495 8.93 28.495 16 29 C15.67 28.34 15.34 27.68 15 27 C13.10466658 26.53476937 13.10466658 26.53476937 10.9375 26.375 C9.638125 26.25125 8.33875 26.1275 7 26 C7 25.67 7 25.34 7 25 C10.63 25 14.26 25 18 25 C18 26.65 18 28.3 18 30 C12.06 30 6.12 30 0 30 C0 20.1 0 10.2 0 0 Z " fill="#515487" transform="translate(200,179)"/>
<path d="M0 0 C1.32 0 2.64 0 4 0 C4 4.62 4 9.24 4 14 C6.31 14 8.62 14 11 14 C11 14.99 11 15.98 11 17 C7.37 17 3.74 17 0 17 C0 11.39 0 5.78 0 0 Z " fill="#ACABA9" transform="translate(214,221)"/>
<path d="M0 0 C0.33 1.32 0.66 2.64 1 4 C-0.65 4 -2.3 4 -4 4 C-4 8.62 -4 13.24 -4 18 C-4.99 18 -5.98 18 -7 18 C-7 13.38 -7 8.76 -7 4 C-8.65 4 -10.3 4 -12 4 C-12 3.01 -12 2.02 -12 1 C-7.93631321 0.22596442 -4.13574827 -0.0984702 0 0 Z " fill="#BDBBBB" transform="translate(257,220)"/>
<path d="M0 0 C3.5 0.125 3.5 0.125 4.5 1.125 C4.71067535 2.51487207 4.86871383 3.91289562 5 5.3125 C5.3658546 8.94781711 5.85416391 12.52677034 6.5 16.125 C5.84 16.455 5.18 16.785 4.5 17.125 C4.5 15.475 4.5 13.825 4.5 12.125 C3.51 12.125 2.52 12.125 1.5 12.125 C0.84 9.815 0.18 7.505 -0.5 5.125 C-1.82 5.455 -3.14 5.785 -4.5 6.125 C-4.542721 4.45888095 -4.54063832 2.79117115 -4.5 1.125 C-3.5 0.125 -3.5 0.125 0 0 Z " fill="#51579D" transform="translate(149.5,179.875)"/>
<path d="M0 0 C0.66 0 1.32 0 2 0 C2 2.31 2 4.62 2 7 C3.98 7 5.96 7 8 7 C8.33 6.01 8.66 5.02 9 4 C9.56539517 6.18080993 10.06838701 8.35048343 10.5 10.5625 C10.97476438 13.12286851 10.97476438 13.12286851 12 16 C10.68 16 9.36 16 8 16 C5 11.92857143 5 11.92857143 5 9 C4.01 9 3.02 9 2 9 C2 10.98 2 12.96 2 15 C1.34 15 0.68 15 0 15 C0 10.05 0 5.1 0 0 Z " fill="#F8F7F6" transform="translate(268,222)"/>
<path d="M0 0 C7 1 7 1 9.4375 3.125 C11.40999778 6.75439592 11.5102632 8.91789442 11 13 C9.59539303 15.87305972 8.25489001 17.74510999 6 20 C4.02 20 2.04 20 0 20 C0 13.4 0 6.8 0 0 Z M2 2 C0.45102015 5.0979597 1.16760461 8.26216552 1.4375 11.625 C1.48970703 12.33140625 1.54191406 13.0378125 1.59570312 13.765625 C1.72541207 15.51079987 1.86204954 17.25545725 2 19 C6.41110137 17.90726197 6.41110137 17.90726197 9.4375 14.8125 C10.15638119 11.21809404 9.85621483 8.5565847 9 5 C7.83115894 2.99515224 7.83115894 2.99515224 6 2 C4.68 2 3.36 2 2 2 Z " fill="#252845" transform="translate(247,184)"/>
<path d="M0 0 C0.66 0 1.32 0 2 0 C2.33872513 1.41538717 2.67074624 2.83237963 3 4.25 C3.185625 5.03890625 3.37125 5.8278125 3.5625 6.640625 C4 9 4 9 4 13 C2.68 13 1.36 13 0 13 C0 13.99 0 14.98 0 16 C1.98 16 3.96 16 6 16 C6 16.33 6 16.66 6 17 C2.7 17 -0.6 17 -4 17 C-3.7168444 14.91549283 -3.42314331 12.83241633 -3.125 10.75 C-2.96257812 9.58984375 -2.80015625 8.4296875 -2.6328125 7.234375 C-2.08179569 4.41806687 -1.44203518 2.44782443 0 0 Z M1 5 C-0.29633621 6.06645115 -0.29633621 6.06645115 -0.0625 8.5625 C-0.041875 9.366875 -0.02125 10.17125 0 11 C0.66 11 1.32 11 2 11 C2 9.02 2 7.04 2 5 C1.67 5 1.34 5 1 5 Z " fill="#383D6A" transform="translate(282,185)"/>
<path d="M0 0 C1.98 0 3.96 0 6 0 C6 9.9 6 19.8 6 30 C4.02 30 2.04 30 0 30 C0 20.1 0 10.2 0 0 Z M1 2 C1 10.91 1 19.82 1 29 C2.32 29 3.64 29 5 29 C5 20.42 5 11.84 5 3 C3.68 2.67 2.36 2.34 1 2 Z " fill="#515583" transform="translate(61,179)"/>
<path d="M0 0 C3.96 0 7.92 0 12 0 C13.41441874 2.82883747 13.31900332 4.87376745 13 8 C11 9.875 11 9.875 9 11 C9 10.34 9 9.68 9 9 C7.35 8.67 5.7 8.34 4 8 C4 7.67 4 7.34 4 7 C5.65 6.67 7.3 6.34 9 6 C9 5.34 9 4.68 9 4 C7.824375 3.814375 7.824375 3.814375 6.625 3.625 C4 3 4 3 2 1 C2 5.95 2 10.9 2 16 C2.66 16.33 3.32 16.66 4 17 C3.01 17 2.02 17 1 17 C0.67 11.39 0.34 5.78 0 0 Z " fill="#8F8D8D" transform="translate(368,221)"/>
<path d="M0 0 C1.32 0 2.64 0 4 0 C4 5.61 4 11.22 4 17 C2.68 17 1.36 17 0 17 C0 11.39 0 5.78 0 0 Z " fill="#A7A7A4" transform="translate(310,221)"/>
<path d="M0 0 C0.33 2.97 0.66 5.94 1 9 C3.31 9.66 5.62 10.32 8 11 C7.67 11.99 7.34 12.98 7 14 C3.526511 14.31577173 1.62436479 14.4218681 -1.3125 12.4375 C-3.52899129 9.23590146 -3.92959373 6.87234494 -4 3 C-1.87096774 0 -1.87096774 0 0 0 Z " fill="#C6C5C3" transform="translate(148,224)"/>
<path d="M0 0 C3.14581423 -0.02888514 6.29159469 -0.04675923 9.4375 -0.0625 C10.33533203 -0.07087891 11.23316406 -0.07925781 12.15820312 -0.08789062 C13.01220703 -0.09111328 13.86621094 -0.09433594 14.74609375 -0.09765625 C15.93223267 -0.10551147 15.93223267 -0.10551147 17.14233398 -0.11352539 C19 0 19 0 20 1 C20 2.98 20 4.96 20 7 C15.71 7 11.42 7 7 7 C7 6.67 7 6.34 7 6 C10.63 6 14.26 6 18 6 C18 4.68 18 3.36 18 2 C12.06 2.33 6.12 2.66 0 3 C0 2.01 0 1.02 0 0 Z " fill="#313350" transform="translate(170,178)"/>
<path d="M0 0 C0.33 0 0.66 0 1 0 C1.66 2.64 2.32 5.28 3 8 C3.99 8.226875 4.98 8.45375 6 8.6875 C10.51385707 9.95211844 14.15449295 12.38305754 18 15 C17.34 16.32 16.68 17.64 16 19 C15.7525 18.071875 15.7525 18.071875 15.5 17.125 C13.47450054 14.25554243 11.40875648 14.30989874 8.109375 13.60546875 C4.32260815 12.51852641 2.6047536 10.99546665 0 8 C-0.49785341 5.14528735 -0.29758379 2.92624058 0 0 Z " fill="#3C3F6D" transform="translate(77,184)"/>
<path d="M0 0 C2.916929 3.81444561 3.34379879 6.5714366 3.1875 11.3125 C3.16042969 12.38113281 3.13335937 13.44976562 3.10546875 14.55078125 C3.07066406 15.35902344 3.03585937 16.16726562 3 17 C2.67 17 2.34 17 2 17 C1.66048381 15.43883181 1.32867456 13.87598662 1 12.3125 C0.814375 11.44238281 0.62875 10.57226562 0.4375 9.67578125 C0.01027953 7.06287036 -0.07616201 4.64186962 0 2 C-1.32 2 -2.64 2 -4 2 C-4.33 2.99 -4.66 3.98 -5 5 C-6.98 4.01 -8.96 3.02 -11 2 C-7.70619369 -2.94070947 -5.02923757 -2.30506722 0 0 Z " fill="#4F5494" transform="translate(262,183)"/>
<path d="M0 0 C0.66 0 1.32 0 2 0 C4.02558881 3.34939881 4.21738987 5.86962551 4.125 9.75 C4.10695313 10.73484375 4.08890625 11.7196875 4.0703125 12.734375 C4.03550781 13.85585937 4.03550781 13.85585937 4 15 C4.66 15 5.32 15 6 15 C6.66 12.36 7.32 9.72 8 7 C8.33 7 8.66 7 9 7 C9 10.3 9 13.6 9 17 C6.69 17 4.38 17 2 17 C1.93941406 16.10796875 1.87882812 15.2159375 1.81640625 14.296875 C1.73261719 13.12640625 1.64882813 11.9559375 1.5625 10.75 C1.48128906 9.58984375 1.40007812 8.4296875 1.31640625 7.234375 C1.06752213 4.69022624 0.71885058 2.44046752 0 0 Z " fill="#4B4F81" transform="translate(306,192)"/>
<path d="M0 0 C2.64 0.33 5.28 0.66 8 1 C8.33 2.32 8.66 3.64 9 5 C7.02 5 5.04 5 3 5 C2.67 6.65 2.34 8.3 2 10 C4.31 10 6.62 10 9 10 C9 10.33 9 10.66 9 11 C6.03 11 3.06 11 0 11 C0 7.37 0 3.74 0 0 Z " fill="#C5C4C3" transform="translate(83,226)"/>
<path d="M0 0 C3.1875 1.5 3.1875 1.5 5 3 C4.67 4.65 4.34 6.3 4 8 C-3.42857143 9.28571429 -3.42857143 9.28571429 -7 8 C-7 7.67 -7 7.34 -7 7 C-4.36 7 -1.72 7 1 7 C1.33 6.01 1.66 5.02 2 4 C-1.70556651 1.52962233 -5.6985288 1.2913285 -10 2 C-12.30399674 3.1179731 -13.9810343 4.38482744 -16 6 C-12.84658371 -1.27711452 -7.04595356 -0.70973839 0 0 Z " fill="#222236" transform="translate(94,178)"/>
<path d="M0 0 C0.66 0 1.32 0 2 0 C2.02712066 1.43739513 2.04645067 2.87493863 2.0625 4.3125 C2.07410156 5.11300781 2.08570313 5.91351563 2.09765625 6.73828125 C2 9 2 9 1 12 C1.99 12 2.98 12 4 12 C4.66 9.03 5.32 6.06 6 3 C6.33 3 6.66 3 7 3 C7.35910224 10.06234414 7.35910224 10.06234414 5.875 13.9375 C3.41616979 16.64221323 1.57227202 16.76184853 -2 17 C-1.855625 16.443125 -1.71125 15.88625 -1.5625 15.3125 C-0.28453328 10.05863683 0.19646963 5.40291471 0 0 Z " fill="#515692" transform="translate(257,189)"/>
<path d="M0 0 C2.97 0.495 2.97 0.495 6 1 C6.33 1.99 6.66 2.98 7 4 C6.67 4.33 6.34 4.66 6 5 C5.79231771 6.47396739 5.63283983 7.9549126 5.5 9.4375 C5.10958904 13.78082192 5.10958904 13.78082192 4 16 C3.34 16 2.68 16 2 16 C1.93941406 15.26394531 1.87882812 14.52789062 1.81640625 13.76953125 C1.73261719 12.79371094 1.64882813 11.81789062 1.5625 10.8125 C1.48128906 9.84957031 1.40007812 8.88664063 1.31640625 7.89453125 C1.02333849 5.21350398 0.57296246 2.6337014 0 0 Z " fill="#4F57A5" transform="translate(308,191)"/>
<path d="M0 0 C1.2380014 3.57644848 0.74926071 6.33694766 0 10 C0.66 10 1.32 10 2 10 C2.185625 9.0409375 2.185625 9.0409375 2.375 8.0625 C2.58125 7.381875 2.7875 6.70125 3 6 C5.52475462 4.73762269 7.31200466 4.90143596 10.125 4.9375 C11.03507812 4.94652344 11.94515625 4.95554688 12.8828125 4.96484375 C13.93082031 4.98224609 13.93082031 4.98224609 15 5 C14.67 6.32 14.34 7.64 14 9 C13.67 8.34 13.34 7.68 13 7 C10.67843403 6.59270772 8.3431213 6.25561323 6 6 C6 6.66 6 7.32 6 8 C5.34 8 4.68 8 4 8 C3.67 9.32 3.34 10.64 3 12 C1.02 12 -0.96 12 -3 12 C-2.68950274 10.56206608 -2.3765224 9.1246682 -2.0625 7.6875 C-1.88847656 6.88699219 -1.71445312 6.08648437 -1.53515625 5.26171875 C-1 3 -1 3 0 0 Z " fill="#3E416B" transform="translate(330,197)"/>
<path d="M0 0 C1.32 0.33 2.64 0.66 4 1 C3.67 2.65 3.34 4.3 3 6 C-0.3 6 -3.6 6 -7 6 C-7.33 7.32 -7.66 8.64 -8 10 C-9.32 9.67 -10.64 9.34 -12 9 C-11.25 4.25 -11.25 4.25 -9 2 C-7.3125 2.3125 -7.3125 2.3125 -5 3 C-2.66905466 3.3496418 -0.33595238 3.68554487 2 4 C2 3.34 2 2.68 2 2 C1.34 1.34 0.68 0.68 0 0 Z " fill="#303150" transform="translate(88,198)"/>
<path d="M0 0 C0.99 0 1.98 0 3 0 C2.67 5.61 2.34 11.22 2 17 C-2 16 -2 16 -3.3125 14.125 C-4 12 -4 12 -3 9 C-2.34 9.66 -1.68 10.32 -1 11 C-0.67 7.37 -0.34 3.74 0 0 Z " fill="#ECEAEA" transform="translate(335,221)"/>
<path d="M0 0 C3.375 -0.125 3.375 -0.125 7 0 C9 2 9 2 9.1875 5 C9 8 9 8 8 10 C5.03 9.67 2.06 9.34 -1 9 C-1 7.02 -1 5.04 -1 3 C0.65 3 2.3 3 4 3 C2.68 3.33 1.36 3.66 0 4 C0 5.32 0 6.64 0 8 C1.65 8 3.3 8 5 8 C5.144375 7.360625 5.28875 6.72125 5.4375 6.0625 C6 4 6 4 7 3 C4.69 2.34 2.38 1.68 0 1 C0 0.67 0 0.34 0 0 Z " fill="#7C7A7B" transform="translate(106,220)"/>
<path d="M0 0 C3.3 0 6.6 0 10 0 C10 1.65 10 3.3 10 5 C6.7 5 3.4 5 0 5 C0 3.35 0 1.7 0 0 Z " fill="#515691" transform="translate(177,191)"/>
<path d="M0 0 C6.625 -0.25 6.625 -0.25 10 2 C10.3125 4.5 10.3125 4.5 10 7 C8 9 8 9 6.0546875 9.1953125 C4.03645833 9.13020833 2.01822917 9.06510417 0 9 C0 6.03 0 3.06 0 0 Z M2 2 C2 3.98 2 5.96 2 8 C3.66611905 8.042721 5.33382885 8.04063832 7 8 C8.29633621 6.93354885 8.29633621 6.93354885 8.0625 4.4375 C8.041875 3.633125 8.02125 2.82875 8 2 C6.02 2 4.04 2 2 2 Z " fill="#242846" transform="translate(114,184)"/>
<path d="M0 0 C6.75 0.75 6.75 0.75 9 3 C9.125 6.125 9.125 6.125 9 9 C7.68 8.01 6.36 7.02 5 6 C4.67 6.66 4.34 7.32 4 8 C2.68 8.33 1.36 8.66 0 9 C0 6.03 0 3.06 0 0 Z M1 4 C2 6 2 6 2 6 Z " fill="#9F9D9C" transform="translate(63,220)"/>
<path d="M0 0 C1.5 1 1.5 1 3 3 C3.33190332 5.75479755 3.18037589 8.20417366 3 11 C2 12 2 12 -1.5625 12.0625 C-2.696875 12.041875 -3.83125 12.02125 -5 12 C-5 11.01 -5 10.02 -5 9 C-3.68 8.67 -2.36 8.34 -1 8 C-0.67 5.36 -0.34 2.72 0 0 Z " fill="#5157A3" transform="translate(287,189)"/>
<path d="M0 0 C0 2.31 0 4.62 0 7 C-0.33 7 -0.66 7 -1 7 C-1.33 10.3 -1.66 13.6 -2 17 C-2.66 17 -3.32 17 -4 17 C-4.33 11.72 -4.66 6.44 -5 1 C-1 0 -1 0 0 0 Z " fill="#DFDCDC" transform="translate(329,220)"/>
<path d="M0 0 C0 1.32 0 2.64 0 4 C-3.37817425 4.84454356 -5.67465243 5.10844919 -9 4 C-9.33 4.99 -9.66 5.98 -10 7 C-10.25 4.6875 -10.25 4.6875 -10 2 C-6.86993817 -1.6116098 -4.40477201 -1.101193 0 0 Z " fill="#9C9A99" transform="translate(134,221)"/>
<path d="M0 0 C1.00693162 3.12179408 0.97289724 4.98969669 0.00390625 8.109375 C-0.22490234 8.86347656 -0.45371094 9.61757812 -0.68945312 10.39453125 C-0.93630859 11.17183594 -1.18316406 11.94914063 -1.4375 12.75 C-1.68048828 13.54277344 -1.92347656 14.33554688 -2.17382812 15.15234375 C-2.77354195 17.10435346 -3.38558121 19.05256883 -4 21 C-2.02 21 -0.04 21 2 21 C0 23 0 23 -2.5625 23.1875 C-5 23 -5 23 -6 22 C-5.52221247 16.71741961 -4.17702722 12.02770516 -2.4375 7.0625 C-2.20353516 6.37865234 -1.96957031 5.69480469 -1.72851562 4.99023438 C-1.15788171 3.32491499 -0.57972902 1.66217507 0 0 Z " fill="#232238" transform="translate(275,188)"/>
<path d="M0 0 C2.97 0 5.94 0 9 0 C9.86762314 2.24561282 10.7192103 4.49526255 11.5625 6.75 C11.80935547 7.38421875 12.05621094 8.0184375 12.31054688 8.671875 C13.58197079 12.11009179 14.46686355 14.52168882 13 18 C12.67 17.01 12.34 16.02 12 15 C11.49855469 14.56042969 10.99710938 14.12085938 10.48046875 13.66796875 C8.38874915 11.31133479 8.49503204 9.41554462 8.3125 6.3125 C8.24675781 5.31863281 8.18101562 4.32476562 8.11328125 3.30078125 C8.07589844 2.54152344 8.03851563 1.78226563 8 1 C5.36 1 2.72 1 0 1 C0 0.67 0 0.34 0 0 Z " fill="#2C2E4E" transform="translate(145,178)"/>
<path d="M0 0 C0.99 0.33 1.98 0.66 3 1 C3.33 3.97 3.66 6.94 4 10 C2.35 10 0.7 10 -1 10 C-1.33 8.02 -1.66 6.04 -2 4 C-1.34 4 -0.68 4 0 4 C0 2.68 0 1.36 0 0 Z " fill="#50579D" transform="translate(156,197)"/>
<path d="M0 0 C0.66 0 1.32 0 2 0 C2 1.32 2 2.64 2 4 C3.65 4.33 5.3 4.66 7 5 C7 5.33 7 5.66 7 6 C5.824375 6.12375 5.824375 6.12375 4.625 6.25 C1.85250896 6.72806339 1.85250896 6.72806339 0.6875 9.0625 C0.460625 9.701875 0.23375 10.34125 0 11 C-0.99 11 -1.98 11 -3 11 C-2.01 7.37 -1.02 3.74 0 0 Z " fill="#CCCBC9" transform="translate(290,227)"/>
<path d="M0 0 C1.32 0.66 2.64 1.32 4 2 C3.01 3.98 2.02 5.96 1 8 C0.34 8 -0.32 8 -1 8 C-1.33 9.32 -1.66 10.64 -2 12 C-2.66 11.67 -3.32 11.34 -4 11 C-3.67 8.69 -3.34 6.38 -3 4 C-2.34 4 -1.68 4 -1 4 C-0.67 2.68 -0.34 1.36 0 0 Z " fill="#5058A3" transform="translate(143,196)"/>
<path d="M0 0 C1.65 0 3.3 0 5 0 C5 2.64 5 5.28 5 8 C4.67 8 4.34 8 4 8 C4 6.02 4 4.04 4 2 C3.34 2 2.68 2 2 2 C2 6.29 2 10.58 2 15 C0 13 0 13 -0.1953125 9.9609375 C-0.17210937 8.77757812 -0.14890625 7.59421875 -0.125 6.375 C-0.10695313 5.18648437 -0.08890625 3.99796875 -0.0703125 2.7734375 C-0.04710937 1.85820312 -0.02390625 0.94296875 0 0 Z " fill="#555795" transform="translate(378,180)"/>
<path d="M0 0 C0.99 0 1.98 0 3 0 C3.66 3.63 4.32 7.26 5 11 C4.01 11.495 4.01 11.495 3 12 C0.89366282 10.29171079 0.06198392 9.47851584 -0.29296875 6.73828125 C-0.25816406 5.93777344 -0.22335937 5.13726562 -0.1875 4.3125 C-0.16042969 3.50425781 -0.13335937 2.69601563 -0.10546875 1.86328125 C-0.07066406 1.24839844 -0.03585937 0.63351563 0 0 Z " fill="#5058A2" transform="translate(343,189)"/>
<path d="M0 0 C1.32 0.33 2.64 0.66 4 1 C3.67 1.99 3.34 2.98 3 4 C2.77820215 5.89212737 2.59385985 7.78884472 2.4375 9.6875 C2.31181641 11.17830078 2.31181641 11.17830078 2.18359375 12.69921875 C2.12300781 13.45847656 2.06242188 14.21773437 2 15 C1.34 15 0.68 15 0 15 C0 10.05 0 5.1 0 0 Z " fill="#FAF9F8" transform="translate(170,222)"/>
<path d="M0 0 C2.27618181 2.1677922 4.32954824 4.32727719 6 7 C5.67 7.99 5.34 8.98 5 10 C-0.625 11.125 -0.625 11.125 -4 10 C-5.1875 6.9375 -5.1875 6.9375 -6 4 C-4.5 5.375 -4.5 5.375 -3 7 C-3 7.66 -3 8.32 -3 9 C-1.02 8.67 0.96 8.34 3 8 C2.505 7.05125 2.01 6.1025 1.5 5.125 C0 2 0 2 0 0 Z " fill="#212138" transform="translate(127,200)"/>
<path d="M0 0 C0.99 0.33 1.98 0.66 3 1 C4.32854177 6.9180497 3.66464729 9.77729131 1 15 C0.67 14.34 0.34 13.68 0 13 C-0.66 12.67 -1.32 12.34 -2 12 C-1.690625 11.0925 -1.38125 10.185 -1.0625 9.25 C0.84326696 4.57207072 0.84326696 4.57207072 0 0 Z " fill="#9C9B97" transform="translate(156,222)"/>
<path d="M0 0 C3.09902323 3.09902323 2.9898579 5.39147385 3.0625 9.75 C3.041875 10.8225 3.02125 11.895 3 13 C1.02 13 -0.96 13 -3 13 C-3 12.34 -3 11.68 -3 11 C-1.68 11 -0.36 11 1 11 C0.835 10.484375 0.67 9.96875 0.5 9.4375 C-0.15049 6.26636124 -0.0620734 3.22781666 0 0 Z " fill="#3E4069" transform="translate(159,196)"/>
<path d="M0 0 C0.66 0 1.32 0 2 0 C1.67 2.97 1.34 5.94 1 9 C1.66 8.01 2.32 7.02 3 6 C3.66 6.33 4.32 6.66 5 7 C4.67 8.32 4.34 9.64 4 11 C1.69 11 -0.62 11 -3 11 C-2.01 7.37 -1.02 3.74 0 0 Z " fill="#505285" transform="translate(139,198)"/>
<path d="M0 0 C2.39763185 2.39763185 2.34280586 3.33273498 2.625 6.625 C2.69976562 7.44226563 2.77453125 8.25953125 2.8515625 9.1015625 C2.92503906 10.04128906 2.92503906 10.04128906 3 11 C1.02 11 -0.96 11 -3 11 C-2.69217504 9.35328588 -2.37860766 7.70764424 -2.0625 6.0625 C-1.88847656 5.14597656 -1.71445313 4.22945312 -1.53515625 3.28515625 C-1 1 -1 1 0 0 Z M-1 4 C-1 5.98 -1 7.96 -1 10 C-0.01 9.67 0.98 9.34 2 9 C1.67 7.35 1.34 5.7 1 4 C0.34 4 -0.32 4 -1 4 Z " fill="#22264A" transform="translate(149,186)"/>
<path d="M0 0 C0.99 0.33 1.98 0.66 3 1 C3.25 3.8125 3.25 3.8125 3 7 C1 8.875 1 8.875 -1 10 C-1 9.34 -1 8.68 -1 8 C-2.65 7.67 -4.3 7.34 -6 7 C-6 6.67 -6 6.34 -6 6 C-4.35 5.67 -2.7 5.34 -1 5 C-0.67 3.35 -0.34 1.7 0 0 Z " fill="#B0B0AE" transform="translate(378,222)"/>
<path d="M0 0 C2.87579981 4.31369972 4 7.80734761 4 13 C3.01 13 2.02 13 1 13 C0.29826347 8.61414671 -0.10834375 4.44209357 0 0 Z " fill="#B1AEAC" transform="translate(201,225)"/>
<path d="M0 0 C1.65 0 3.3 0 5 0 C5.33 2.31 5.66 4.62 6 7 C5.01 7.33 4.02 7.66 3 8 C2.67 6.68 2.34 5.36 2 4 C1.01 4.495 1.01 4.495 0 5 C0 3.35 0 1.7 0 0 Z " fill="#C8C6C5" transform="translate(292,221)"/>
<path d="M0 0 C1.98 0 3.96 0 6 0 C3.10933941 9.59453303 3.10933941 9.59453303 0 13 C0.60698743 8.87248551 2.03810791 5.6678852 4 2 C2.35 2.33 0.7 2.66 -1 3 C-0.67 2.01 -0.34 1.02 0 0 Z " fill="#4F5181" transform="translate(317,179)"/>
<path d="M0 0 C0 1.32 0 2.64 0 4 C-3.63 4 -7.26 4 -11 4 C-7.05423995 0.05423995 -5.48656336 0 0 0 Z " fill="#535898" transform="translate(188,180)"/>
<path d="M0 0 C1.77706209 2.66559313 2.87548273 5.0280615 4 8 C2.68 8 1.36 8 0 8 C-3 3.92857143 -3 3.92857143 -3 1 C-2.01 0.67 -1.02 0.34 0 0 Z " fill="#ACACAA" transform="translate(276,230)"/>
<path d="M0 0 C3 2 3 2 4 5 C4.068991 7.06145107 4.08467727 9.12501401 4.0625 11.1875 C4.05347656 12.27417969 4.04445313 13.36085937 4.03515625 14.48046875 C4.02355469 15.31191406 4.01195312 16.14335937 4 17 C3.67 17 3.34 17 3 17 C1.82877141 11.34853777 0.74660712 5.72398793 0 0 Z " fill="#2A2E4C" transform="translate(261,183)"/>
<path d="M0 0 C0.99 0.66 1.98 1.32 3 2 C2.2575 2.721875 1.515 3.44375 0.75 4.1875 C-1.69290515 6.68592573 -3.8681047 9.23643202 -6 12 C-6.66 11.67 -7.32 11.34 -8 11 C-7.59007812 10.45730469 -7.18015625 9.91460937 -6.7578125 9.35546875 C-6.21898437 8.64003906 -5.68015625 7.92460937 -5.125 7.1875 C-4.59132813 6.47980469 -4.05765625 5.77210938 -3.5078125 5.04296875 C-2.29185219 3.39543703 -1.13583859 1.70375789 0 0 Z " fill="#BCBBBB" transform="translate(305,268)"/>
<path d="M0 0 C1.65 0 3.3 0 5 0 C5 3.3 5 6.6 5 10 C3 6 3 6 3 3 C2.01 3.33 1.02 3.66 0 4 C0 2.68 0 1.36 0 0 Z " fill="#D3D1D0" transform="translate(196,221)"/>
<path d="M0 0 C4.455 0.99 4.455 0.99 9 2 C7 4 7 4 3.375 4.125 C2.26125 4.08375 1.1475 4.0425 0 4 C0 2.68 0 1.36 0 0 Z " fill="#5357A0" transform="translate(80,204)"/>
<path d="M0 0 C-1.25 1.5 -1.25 1.5 -3 3 C-4.32 3 -5.64 3 -7 3 C-7 5.64 -7 8.28 -7 11 C-7.33 11 -7.66 11 -8 11 C-8 8.03 -8 5.06 -8 2 C-8.66 1.67 -9.32 1.34 -10 1 C-6.61981469 -0.04005702 -3.5219721 -0.08004482 0 0 Z " fill="#49528F" transform="translate(184,180)"/>
<path d="M0 0 C1.485 0.99 1.485 0.99 3 2 C3 2.66 3 3.32 3 4 C3.99 4 4.98 4 6 4 C6 5.32 6 6.64 6 8 C4.125 7.75 4.125 7.75 2 7 C0.27898465 4.41847698 0 3.15081975 0 0 Z " fill="#D5D3D2" transform="translate(331,230)"/>
<path d="M0 0 C1.98 0.495 1.98 0.495 4 1 C3.34 2.98 2.68 4.96 2 7 C2.66 7 3.32 7 4 7 C4.33 6.01 4.66 5.02 5 4 C5 5.32 5 6.64 5 8 C3.68 8 2.36 8 1 8 C-1.125 3.375 -1.125 3.375 0 0 Z " fill="#82817F" transform="translate(195,223)"/>
<path d="M0 0 C2.97 0 5.94 0 9 0 C9 0.66 9 1.32 9 2 C6.69 2 4.38 2 2 2 C1.67 2.99 1.34 3.98 1 5 C0.67 3.35 0.34 1.7 0 0 Z " fill="#EFEFED" transform="translate(349,221)"/>
<path d="M0 0 C0.99 0.495 0.99 0.495 2 1 C2 1.99 2 2.98 2 4 C2.66 4 3.32 4 4 4 C4 5.32 4 6.64 4 8 C2.68 7.67 1.36 7.34 0 7 C0 4.69 0 2.38 0 0 Z " fill="#51559D" transform="translate(372,193)"/>
<path d="M0 0 C0.33 0 0.66 0 1 0 C1.33 2.64 1.66 5.28 2 8 C0.68 8.33 -0.64 8.66 -2 9 C-1.34 6.03 -0.68 3.06 0 0 Z " fill="#A5A4A1" transform="translate(193,229)"/>
<path d="M0 0 C2.4375 0.8125 2.4375 0.8125 5 2 C5.33 2.99 5.66 3.98 6 5 C4.35 5 2.7 5 1 5 C0.67 3.35 0.34 1.7 0 0 Z " fill="#D6D5D3" transform="translate(125,225)"/>
<path d="M0 0 C3 3.75 3 3.75 3 6 C1.68 6 0.36 6 -1 6 C-1.33 4.35 -1.66 2.7 -2 1 C-1.34 0.67 -0.68 0.34 0 0 Z " fill="#AAA9A7" transform="translate(112,232)"/>
<path d="M0 0 C1.98 0.99 1.98 0.99 4 2 C4 4.31 4 6.62 4 9 C1.49701566 6.06171403 0.53069061 3.82097239 0 0 Z " fill="#E1E0DD" transform="translate(154,222)"/>
<path d="M0 0 C1.32 1.65 2.64 3.3 4 5 C3 7 3 7 1 8 C0.26919734 6.02253397 -0.39421747 4.01927511 -1 2 C-0.67 1.34 -0.34 0.68 0 0 Z " fill="#B2ADB0" transform="translate(174,224)"/>
<path d="M0 0 C1.65 0 3.3 0 5 0 C5 3 5 3 4 5 C1.9375 5.625 1.9375 5.625 0 6 C0 4.02 0 2.04 0 0 Z M1 1 C2 3 2 3 2 3 Z " fill="#383434" transform="translate(63,223)"/>
<path d="M0 0 C0 1.32 0 2.64 0 4 C-0.99 4.33 -1.98 4.66 -3 5 C-3.99 3.68 -4.98 2.36 -6 1 C-4 0 -4 0 0 0 Z " fill="#D5D4D2" transform="translate(112,229)"/>
<path d="M0 0 C2.49361571 1.20381448 4.68143083 2.45428722 7 4 C4.69 4 2.38 4 0 4 C-0.33 3.34 -0.66 2.68 -1 2 C-0.67 1.34 -0.34 0.68 0 0 Z " fill="#BEBBBA" transform="translate(124,233)"/>
<path d="M0 0 C1.5 1.3125 1.5 1.3125 3 3 C3 3.99 3 4.98 3 6 C1.68 5.67 0.36 5.34 -1 5 C-0.67 3.35 -0.34 1.7 0 0 Z " fill="#AFABAA" transform="translate(378,232)"/>
<path d="M0 0 C0.66 0 1.32 0 2 0 C1.67 0.66 1.34 1.32 1 2 C0.67 1.34 0.34 0.68 0 0 Z " fill="#151500" transform="translate(375,225)"/>
<path d="M0 0 C2 1 2 1 2 1 Z " fill="#000000" transform="translate(373,233)"/>
<path d="M0 0 C2 1 2 1 2 1 Z " fill="#202020" transform="translate(108,225)"/>
<path d="" fill="#000000" transform="translate(0,0)"/>
<path d="" fill="#000000" transform="translate(0,0)"/>
<path d="" fill="#000000" transform="translate(0,0)"/>
<path d="" fill="#000000" transform="translate(0,0)"/>
<path d="" fill="#000000" transform="translate(0,0)"/>
</svg>
